<svg width="62" height="57" viewBox="0 0 62 57" fill="none" xmlns="http://www.w3.org/2000/svg">
<g clip-path="url(#clip0_15_2047)">
<g clip-path="url(#clip1_15_2047)">
<path d="M26.6 25.4849C27.6494 25.4849 28.5 26.3355 28.5 27.3849C28.5 28.4341 27.6494 29.2849 26.6 29.2849C25.5506 29.2849 24.7 28.4341 24.7 27.3849C24.7 26.3355 25.5506 25.4849 26.6 25.4849Z" stroke="#786AF9" stroke-width="1.425"/>
<path d="M19 25.4849C20.0494 25.4849 20.9 26.3355 20.9 27.3849C20.9 28.4341 20.0494 29.2849 19 29.2849C17.9506 29.2849 17.1 28.4341 17.1 27.3849C17.1 26.3355 17.9506 25.4849 19 25.4849Z" stroke="#786AF9" stroke-width="1.425"/>
<path d="M11.4 25.4849C12.4494 25.4849 13.3 26.3355 13.3 27.3849C13.3 28.4341 12.4494 29.2849 11.4 29.2849C10.3506 29.2849 9.5 28.4341 9.5 27.3849C9.5 26.3355 10.3506 25.4849 11.4 25.4849Z" stroke="#786AF9" stroke-width="1.425"/>
<path d="M12.35 47.3348L15.3453 41.7186C15.8406 40.7899 16.8075 40.2098 17.86 40.2098H18.525" stroke="#786AF9" stroke-width="1.425"/>
<path d="M12.35 47.3349L9.37057 42.1209C8.86315 41.2328 7.91882 40.6849 6.89608 40.6849H3.8C2.22599 40.6849 0.949997 39.4088 0.949997 37.8349V18.3599C0.949997 16.7858 2.22599 15.5099 3.8 15.5099H34.2803C35.8226 15.5099 37.0851 16.7368 37.1291 18.2785L37.525 32.1349" stroke="#786AF9" stroke-width="1.425"/>
<path d="M53.2 41.6349C54.0358 42.2617 54.6705 42.7737 54.8357 43.5813C55.1961 45.3441 53.0135 46.3849 51.2143 46.3849H44.65" stroke="#786AF9" stroke-width="1.425"/>
<path d="M45.6 54.9349H50.0125C50.2372 54.9349 50.4636 54.9226 50.6835 54.8765C53.6079 54.2627 52.6751 51.5766 51.3 50.6599M51.3 50.6599H44.65M51.3 50.6599C54.625 50.1849 53.675 46.8599 52.25 46.3849" stroke="#786AF9" stroke-width="1.425"/>
<path d="M29.45 52.0844C34.675 50.6595 34.9804 54.9341 36.1 54.9342C39.425 54.9344 40.85 54.9342 42.75 54.9342" stroke="#786AF9" stroke-width="1.425"/>
<path d="M28.025 34.9849H20.9C19.8506 34.9849 19 35.8355 19 36.8849V52.0849C19 53.1341 19.8506 53.9849 20.9 53.9849H28.025C29.0744 53.9849 29.925 53.1341 29.925 52.0849V36.8849C29.925 35.8355 29.0744 34.9849 28.025 34.9849Z" stroke="#786AF9" stroke-width="1.425"/>
<path d="M24.7 35.4598V54.4598" stroke="#786AF9" stroke-width="1.425"/>
<path d="M56.05 12.1848C55.1 21.6848 48.1334 26.5931 45.6 28.8098" stroke="#786AF9" stroke-width="1.425"/>
<path d="M29.925 37.3603C35.4437 38.74 38.4393 30.6205 40.6361 26.7976C40.7742 26.5571 40.967 26.3483 41.2124 26.2193C42.8713 25.3475 44.2625 26.2116 45.073 27.1308C45.4506 27.5588 45.4812 28.1694 45.2762 28.702L43.225 34.0353C42.5624 35.6919 43.5366 36.7465 44.3218 37.1995C44.5312 37.3203 44.7742 37.3603 45.0159 37.3603H54.15C56.4467 37.3603 56.4813 39.5195 55.9939 40.8551C55.8005 41.3848 55.249 41.6353 54.6851 41.6353H44.65" stroke="#786AF9" stroke-width="1.425"/>
<path d="M34.9125 5.05981C36.3375 7.90981 38.475 7.43481 39.425 5.05981" stroke="#786AF9" stroke-width="1.425"/>
<path d="M35.1519 5.53449C31.3526 -2.54064 16.1513 1.73487 19.4755 15.0347" stroke="#786AF9" stroke-width="1.425"/>
<path d="M38.95 6.00982C44.175 -2.54017 55.1 2.21001 55.575 9.33482" stroke="#786AF9" stroke-width="1.425"/>
</g>
</g>
<defs>
<clipPath id="clip0_15_2047">
<rect width="57" height="57" fill="white"/>
</clipPath>
<clipPath id="clip1_15_2047">
<rect width="57" height="56.05" fill="white" transform="translate(0 0.474976)"/>
</clipPath>
</defs>
</svg>
