<svg width="57" height="54" viewBox="0 0 57 54" fill="none" xmlns="http://www.w3.org/2000/svg">
<path d="M16.3756 6.32019C20.485 8.14659 23.7954 13.5496 24.9368 16.023" stroke="#786AF9" stroke-width="1.44915"/>
<path d="M44.9134 34.858C50.8491 39.8806 52.7136 43.0387 52.9038 43.99" stroke="#786AF9" stroke-width="1.44915"/>
<path d="M0.966095 45.7022C6.95598 53.8315 11.3422 50.4145 14.3652 46.9917C15.8896 45.2658 16.2003 42.3157 14.1865 41.199C12.6688 40.3574 11.3014 40.6818 10.2691 41.4334C9.26212 42.1666 9.05721 43.5456 9.44843 44.7281C12.5036 53.9629 22.3256 51.5997 24.3668 50.2684C26.2815 49.0197 27.7186 48.0705 28.7808 47.3553C31.3131 45.6502 27.0118 44.2896 24.578 42.4467C15.9814 35.9379 11.8874 28.1633 11.2396 26.8677C5.53793 12.1385 11.0433 5.05633 14.9138 1.99929C16.1294 1.03913 17.8031 0.956828 19.1635 1.69792C24.2396 4.46336 26.972 8.01997 28.0215 10.11C28.2741 10.6131 28.3848 11.1806 28.2576 11.729C27.8226 13.6045 26.1209 15.8353 24.9068 17.1682C24.5571 17.552 24.2351 17.9737 24.0444 18.4566C20.3667 27.7664 35.8184 35.883 39.7043 33.2951C40.2401 32.9384 40.5977 32.3556 41.0961 31.948C43.3974 30.0665 44.7192 29.4505 45.771 29.2488C46.6888 29.0729 47.6224 29.4175 48.3873 29.9546C55.1116 34.6764 56.3668 38.847 55.9671 41.0934C55.7044 42.57 54.1163 43.5871 53.0194 44.6099C47.2992 49.943 39.2494 48.3321 35.7818 47.9854" stroke="#786AF9" stroke-width="1.44915"/>
</svg>
