<svg width="57" height="57" viewBox="0 0 57 57" fill="none" xmlns="http://www.w3.org/2000/svg">
<g clip-path="url(#clip0_15_2005)">
<path d="M0 8.07495H1.425" stroke="#F6F9FF" stroke-width="1.425"/>
<path d="M3.79999 8.07495H17.1" stroke="#F6F9FF" stroke-width="1.425"/>
<path d="M7.60001 43.7H1.90001C1.37535 43.7 0.950012 43.2747 0.950012 42.75V12.825C0.950012 12.3003 1.37535 11.875 1.90001 11.875H6.65001" stroke="#F6F9FF" stroke-width="1.425"/>
<path d="M0.950012 39.425H6.17501" stroke="#F6F9FF" stroke-width="1.425"/>
<path d="M20.425 38.95H37.525" stroke="#F6F9FF" stroke-width="1.425"/>
<path d="M13.775 42.275V43.7" stroke="#F6F9FF" stroke-width="1.425"/>
<path d="M46.55 42.275V43.7" stroke="#F6F9FF" stroke-width="1.425"/>
<path d="M53.2 38.95H57" stroke="#F6F9FF" stroke-width="1.425"/>
<path d="M35.625 43.225H40.85" stroke="#F6F9FF" stroke-width="1.425"/>
<path d="M46.075 48.45C48.9607 48.45 51.3 46.1107 51.3 43.225C51.3 40.3393 48.9607 38 46.075 38C43.1893 38 40.85 40.3393 40.85 43.225C40.85 46.1107 43.1893 48.45 46.075 48.45Z" stroke="#F6F9FF" stroke-width="1.425"/>
<path d="M3.79999 10.925H5.22499" stroke="#786AF9" stroke-width="1.425"/>
<path d="M3.79999 14.25H5.22499" stroke="#786AF9" stroke-width="1.425"/>
<path d="M3.79999 18.05H5.22499" stroke="#786AF9" stroke-width="1.425"/>
<path d="M3.79999 21.85H5.22499" stroke="#786AF9" stroke-width="1.425"/>
<path d="M22.8 20.9C22.8 21.9494 23.6506 22.8 24.7 22.8C25.7494 22.8 26.6 21.9494 26.6 20.9C26.6 19.8506 25.7494 19 24.7 19C23.6506 19 22.8 19.8506 22.8 20.9Z" stroke="#786AF9" stroke-width="1.425"/>
<path d="M37.05 18.05C37.05 19.0994 37.9006 19.95 38.95 19.95C39.9994 19.95 40.85 19.0994 40.85 18.05C40.85 17.0007 39.9994 16.15 38.95 16.15C37.9006 16.15 37.05 17.0007 37.05 18.05Z" stroke="#786AF9" stroke-width="1.425"/>
<path d="M31.35 12.35C31.35 13.3993 32.2006 14.25 33.25 14.25C34.2993 14.25 35.15 13.3993 35.15 12.35C35.15 11.3006 34.2993 10.45 33.25 10.45C32.2006 10.45 31.35 11.3006 31.35 12.35Z" stroke="#786AF9" stroke-width="1.425"/>
<path d="M34.2 13.775L37.05 16.625" stroke="#786AF9" stroke-width="1.425"/>
<path d="M40.375 16.625L47.025 9.97498" stroke="#786AF9" stroke-width="1.425"/>
<path d="M25.65 19.475L31.825 13.3" stroke="#786AF9" stroke-width="1.425"/>
<path d="M7.125 10.925H19.95" stroke="#786AF9" stroke-width="1.425"/>
<path d="M7.125 14.25H19.95" stroke="#786AF9" stroke-width="1.425"/>
<path d="M7.125 18.05H19.95" stroke="#786AF9" stroke-width="1.425"/>
<path d="M7.125 21.85H19.95" stroke="#786AF9" stroke-width="1.425"/>
<path d="M7.125 18.05H19.95" stroke="#786AF9" stroke-width="1.425"/>
<path d="M50.35 6.65002L0.950012 7.12502V42.75H50.35V6.65002Z" stroke="#786AF9" stroke-width="1.425"/>
<path d="M8.55002 31.35H4.27502V38.95H8.55002V31.35Z" stroke="#786AF9" stroke-width="1.425"/>
<path d="M15.2 33.25H10.45V38.95H15.2V33.25Z" stroke="#786AF9" stroke-width="1.425"/>
<path d="M21.85 25.65H17.1V38.95H21.85V25.65Z" stroke="#786AF9" stroke-width="1.425"/>
<path d="M28.5 29.45H23.75V38.95H28.5V29.45Z" stroke="#786AF9" stroke-width="1.425"/>
<path d="M45.6 6.17495C45.6 9.06064 47.9393 11.4 50.825 11.4C53.7107 11.4 56.05 9.06064 56.05 6.17495C56.05 3.28926 53.7107 0.949951 50.825 0.949951C47.9393 0.949951 45.6 3.28926 45.6 6.17495Z" fill="#F6F9FF" stroke="#786AF9" stroke-width="1.425"/>
<path d="M28.5 42.275C28.5 49.8827 34.6673 56.05 42.275 56.05C49.8827 56.05 56.05 49.8827 56.05 42.275C56.05 34.6673 49.8827 28.5 42.275 28.5C34.6673 28.5 28.5 34.6673 28.5 42.275Z" fill="#F6F9FF"/>
<path d="M42.275 28.5C34.6673 28.5 28.5 34.6673 28.5 42.275C28.5 49.8827 34.6673 56.05 42.275 56.05C49.8827 56.05 56.05 49.8827 56.05 42.275C56.05 34.6673 49.8827 28.5 42.275 28.5ZM42.275 28.5V35.15" stroke="#786AF9" stroke-width="1.425"/>
<path d="M29.45 48.925L35.625 45.125" stroke="#786AF9" stroke-width="1.425"/>
<path d="M35.15 42.275C35.15 46.21 38.34 49.4 42.275 49.4C46.21 49.4 49.4 46.21 49.4 42.275C49.4 38.34 46.21 35.15 42.275 35.15C38.34 35.15 35.15 38.34 35.15 42.275Z" stroke="#786AF9" stroke-width="1.425"/>
<path d="M38 42.275C38 44.636 39.914 46.55 42.275 46.55C44.636 46.55 46.55 44.636 46.55 42.275C46.55 39.914 44.636 38 42.275 38C39.914 38 38 39.914 38 42.275Z" stroke="#786AF9" stroke-width="1.425"/>
<path d="M48.925 45.125L54.15 48.45" stroke="#786AF9" stroke-width="1.425"/>
</g>
<defs>
<clipPath id="clip0_15_2005">
<rect width="57" height="57" fill="white"/>
</clipPath>
</defs>
</svg>
