<svg width="57" height="57" viewBox="0 0 57 57" fill="none" xmlns="http://www.w3.org/2000/svg">
<g clip-path="url(#clip0_15_1957)">
<g clip-path="url(#clip1_15_1957)">
<g clip-path="url(#clip2_15_1957)">
<path d="M7.24577 7.24585L14.4915 14.4916" stroke="#786AF9" stroke-width="1.44915"/>
<path d="M48.7881 7.24585L41.5424 14.4916" stroke="#786AF9" stroke-width="1.44915"/>
<path d="M49.2712 17.8728H47.7391C47.4829 17.8728 47.2372 17.9746 47.056 18.1558L42.9915 22.2203" stroke="#786AF9" stroke-width="1.44915"/>
<path d="M42.9915 34.2966L46.573 37.8781C46.7541 38.0592 46.9999 38.161 47.2561 38.161H49.2712" stroke="#786AF9" stroke-width="1.44915"/>
<path d="M41.5424 41.5425L49.2712 49.7543" stroke="#786AF9" stroke-width="1.44915"/>
<path d="M34.2966 42.9915L37.917 47.0643C38.0742 47.2412 38.161 47.4696 38.161 47.7062V49.2711" stroke="#786AF9" stroke-width="1.44915"/>
<path d="M21.7373 42.9915L18.1559 46.5729C17.9747 46.754 17.8729 46.9998 17.8729 47.256V49.2711" stroke="#786AF9" stroke-width="1.44915"/>
<path d="M7.24577 48.7882L14.4915 41.5425" stroke="#786AF9" stroke-width="1.44915"/>
<path d="M13.0424 33.8135L8.97788 37.878C8.79671 38.0591 8.55097 38.1609 8.29475 38.1609H6.27966" stroke="#786AF9" stroke-width="1.44915"/>
<path d="M23.1864 32.3645V28.9831L25.1186 24.1526H27.0508L28.983 28.9831V32.3645" stroke="#786AF9" stroke-width="1.44915"/>
<path d="M23.1864 28.9832H28.983" stroke="#786AF9" stroke-width="1.44915"/>
<path d="M31.8814 23.6694V32.3643" stroke="#786AF9" stroke-width="1.44915"/>
<path d="M27.5339 18.356C33.1363 18.356 37.678 22.8976 37.678 28.5C37.678 34.1024 33.1363 38.6441 27.5339 38.6441C21.9315 38.6441 17.3898 34.1024 17.3898 28.5C17.3898 22.8976 21.9315 18.356 27.5339 18.356Z" stroke="#786AF9" stroke-width="1.44915"/>
<path d="M4.83051 0.966064C6.96476 0.966064 8.69492 2.69622 8.69492 4.83047C8.69492 6.96473 6.96476 8.69488 4.83051 8.69488C2.69626 8.69488 0.966103 6.96473 0.966103 4.83047C0.966103 2.69622 2.69626 0.966064 4.83051 0.966064Z" stroke="#786AF9" stroke-width="1.44915"/>
<path d="M4.83051 48.3052C6.96476 48.3052 8.69492 50.0354 8.69492 52.1696C8.69492 54.3038 6.96476 56.034 4.83051 56.034C2.69626 56.034 0.966103 54.3038 0.966103 52.1696C0.966103 50.0354 2.69626 48.3052 4.83051 48.3052Z" stroke="#786AF9" stroke-width="1.44915"/>
<path d="M52.1695 48.3052C54.3037 48.3052 56.0339 50.0354 56.0339 52.1696C56.0339 54.3038 54.3037 56.034 52.1695 56.034C50.0353 56.034 48.3051 54.3038 48.3051 52.1696C48.3051 50.0354 50.0353 48.3052 52.1695 48.3052Z" stroke="#786AF9" stroke-width="1.44915"/>
<path d="M52.1695 0.966064C54.3037 0.966064 56.0339 2.69622 56.0339 4.83047C56.0339 6.96473 54.3037 8.69488 52.1695 8.69488C50.0353 8.69488 48.3051 6.96473 48.3051 4.83047C48.3051 2.69622 50.0353 0.966064 52.1695 0.966064Z" stroke="#786AF9" stroke-width="1.44915"/>
<path d="M37.678 0.966064C39.2787 0.966064 40.5763 2.26368 40.5763 3.86437C40.5763 5.46506 39.2787 6.76267 37.678 6.76267C36.0772 6.76267 34.7797 5.46506 34.7797 3.86437C34.7797 2.26368 36.0772 0.966064 37.678 0.966064Z" stroke="#786AF9" stroke-width="1.44915"/>
<path d="M17.3898 0.966064C18.9906 0.966064 20.2881 2.26368 20.2881 3.86437C20.2881 5.46506 18.9906 6.76267 17.3898 6.76267C15.7891 6.76267 14.4915 5.46506 14.4915 3.86437C14.4915 2.26368 15.7891 0.966064 17.3898 0.966064Z" stroke="#786AF9" stroke-width="1.44915"/>
<path d="M17.3898 49.2712C18.9906 49.2712 20.2881 50.5688 20.2881 52.1695C20.2881 53.7703 18.9906 55.0679 17.3898 55.0679C15.7891 55.0679 14.4915 53.7703 14.4915 52.1695C14.4915 50.5688 15.7891 49.2712 17.3898 49.2712Z" stroke="#786AF9" stroke-width="1.44915"/>
<path d="M38.6441 49.2712C40.2448 49.2712 41.5424 50.5688 41.5424 52.1695C41.5424 53.7703 40.2448 55.0679 38.6441 55.0679C37.0433 55.0679 35.7458 53.7703 35.7458 52.1695C35.7458 50.5688 37.0433 49.2712 38.6441 49.2712Z" stroke="#786AF9" stroke-width="1.44915"/>
<path d="M52.1695 34.7795C53.7702 34.7795 55.0678 36.0771 55.0678 37.6778C55.0678 39.2786 53.7702 40.5762 52.1695 40.5762C50.5688 40.5762 49.2712 39.2786 49.2712 37.6778C49.2712 36.0771 50.5688 34.7795 52.1695 34.7795Z" stroke="#786AF9" stroke-width="1.44915"/>
<path d="M52.1695 15.4575C53.7702 15.4575 55.0678 16.7551 55.0678 18.3558C55.0678 19.9566 53.7702 21.2541 52.1695 21.2541C50.5688 21.2541 49.2712 19.9566 49.2712 18.3558C49.2712 16.7551 50.5688 15.4575 52.1695 15.4575Z" stroke="#786AF9" stroke-width="1.44915"/>
<path d="M3.86441 15.4575C5.46509 15.4575 6.76271 16.7551 6.76271 18.3558C6.76271 19.9566 5.46509 21.2541 3.86441 21.2541C2.26372 21.2541 0.966103 19.9566 0.966103 18.3558C0.966103 16.7551 2.26372 15.4575 3.86441 15.4575Z" stroke="#786AF9" stroke-width="1.44915"/>
<path d="M3.86441 35.7458C5.46509 35.7458 6.76271 37.0434 6.76271 38.6442C6.76271 40.2449 5.46509 41.5425 3.86441 41.5425C2.26372 41.5425 0.966103 40.2449 0.966103 38.6442C0.966103 37.0434 2.26372 35.7458 3.86441 35.7458Z" stroke="#786AF9" stroke-width="1.44915"/>
<path d="M17.0827 43.0352L18.8752 41.8401C19.1531 41.6549 19.5069 41.6263 19.8109 41.7645L24.1538 43.7385C24.454 43.8749 24.6638 44.155 24.7105 44.4815L25.0001 46.5094C25.0681 46.9854 25.4757 47.3389 25.9565 47.3389H29.5943C30.0751 47.3389 30.4827 46.9854 30.5507 46.5094L30.8351 44.519C30.8845 44.1724 31.1178 43.8797 31.4446 43.754L36.6775 41.7413C36.9979 41.618 37.3597 41.6742 37.6278 41.8886L38.935 42.9343C39.3194 43.2418 39.8735 43.2111 40.2216 42.863L42.8631 40.2215C43.2112 39.8734 43.2419 39.3193 42.9344 38.9349L41.8998 37.6416C41.6795 37.3661 41.6267 36.9923 41.7625 36.6666L43.744 31.9108C43.8763 31.5935 44.1673 31.3703 44.5081 31.3248L46.7062 31.0318C47.2014 30.9657 47.5646 30.5331 47.5438 30.0339L47.3724 25.9211C47.3531 25.456 47.0047 25.0708 46.5438 25.0049L44.4815 24.7104C44.1551 24.6637 43.875 24.4539 43.7386 24.1537L41.7646 19.8108C41.6264 19.5068 41.655 19.153 41.8402 18.8751L43.0353 17.0826C43.2907 16.6995 43.2402 16.1893 42.9145 15.8636L40.2216 13.1707C39.8735 12.8226 39.3194 12.7919 38.935 13.0994L37.6278 14.1451C37.3597 14.3596 36.9979 14.4157 36.6775 14.2924L31.4446 12.2797C31.1178 12.154 30.8845 11.8613 30.8351 11.5147L30.5507 9.5243C30.4827 9.04835 30.0751 8.69482 29.5943 8.69482H25.9565C25.4757 8.69482 25.0681 9.04835 25.0001 9.5243L24.7133 11.5324C24.6652 11.8695 24.443 12.1565 24.1285 12.2875L19.3672 14.2714C19.0415 14.4071 18.6677 14.3543 18.3922 14.134L17.0989 13.0994C16.7145 12.7919 16.1604 12.8226 15.8123 13.1707L13.1708 15.8122C12.8227 16.1603 12.792 16.7144 13.0995 17.0988L14.1054 18.3562C14.3408 18.6505 14.3836 19.0547 14.2151 19.3918L11.7721 24.2776C11.6576 24.5067 11.4566 24.681 11.2135 24.7621L9.35551 25.3814C8.96101 25.5129 8.69492 25.8821 8.69492 26.298V30.0773C8.69492 30.5581 9.04844 30.9657 9.52439 31.0337L11.5325 31.3205C11.8696 31.3687 12.1566 31.5909 12.2876 31.9053L14.2714 36.6666C14.4072 36.9923 14.3544 37.3661 14.1341 37.6416L13.0995 38.9349C12.792 39.3193 12.8227 39.8734 13.1708 40.2215L15.8637 42.9144C16.1894 43.2401 16.6996 43.2906 17.0827 43.0352Z" stroke="#786AF9" stroke-width="1.44915"/>
<path d="M17.8729 6.7627V8.77778C17.8729 9.034 17.9747 9.27974 18.1559 9.46091L21.7373 13.0424" stroke="#786AF9" stroke-width="1.44915"/>
<path d="M37.678 6.7627V8.77778C37.678 9.034 37.5761 9.27974 37.395 9.46091L33.8136 13.0424" stroke="#786AF9" stroke-width="1.44915"/>
<path d="M6.76271 18.356H8.43223C8.69503 18.356 8.94649 18.463 9.12863 18.6525L12.5593 22.2204" stroke="#786AF9" stroke-width="1.44915"/>
</g>
</g>
</g>
<defs>
<clipPath id="clip0_15_1957">
<rect width="57" height="57" fill="white"/>
</clipPath>
<clipPath id="clip1_15_1957">
<rect width="57" height="57" fill="white"/>
</clipPath>
<clipPath id="clip2_15_1957">
<rect width="57" height="57" fill="white"/>
</clipPath>
</defs>
</svg>
