<svg width="53" height="57" viewBox="0 0 53 57" fill="none" xmlns="http://www.w3.org/2000/svg">
<path d="M15.9421 25.0851H11.1116C10.578 25.0851 10.1455 24.6526 10.1455 24.119V16.8732C9.17919 -0.0144692 37.6139 -8.22691 42.0121 16.7887C42.0217 16.8431 42.0269 16.9011 42.0269 16.9563V24.119C42.0269 24.6526 41.5944 25.0851 41.0608 25.0851H36.7133" stroke="#786AF9" stroke-width="1.44915"/>
<path d="M9.66101 15.9067H14.4915" stroke="#786AF9" stroke-width="1.44915"/>
<path d="M37.1949 15.9067H41.5424" stroke="#786AF9" stroke-width="1.44915"/>
<path d="M12.5593 25.0847V28.9491C12.5593 29.4827 12.9918 29.9152 13.5254 29.9152H21.2542" stroke="#786AF9" stroke-width="1.44915"/>
<path d="M26.0848 31.8473H23.1864C22.1193 31.8473 21.2542 30.9823 21.2542 29.9151C21.2542 28.8481 22.1193 27.9829 23.1864 27.9829H26.0848C27.1519 27.9829 28.017 28.8481 28.017 29.9151C28.017 30.9823 27.1519 31.8473 26.0848 31.8473Z" stroke="#786AF9" stroke-width="1.44915"/>
<path d="M14.4915 17.8724C16.5072 14.9608 18.8366 13.1414 20.6897 12.1261C22.3844 11.1976 24.2978 12.2275 25.9401 13.2457C28.9103 15.0871 33.9061 16.6544 36.7119 17.3558" stroke="#786AF9" stroke-width="1.44915"/>
<path d="M14.5632 16.5525L15.859 28.2144C15.9131 28.7016 16.0398 29.1876 16.2561 29.6275C21.7698 40.8388 34.8075 36.0283 36.2288 27.5003L37.1949 15.9072C38.6265 5.88571 17.9014 -2.24981 14.6048 15.2519C14.525 15.6754 14.5157 16.1242 14.5632 16.5525Z" stroke="#786AF9" stroke-width="1.44915"/>
<path d="M19.8051 34.2627L17.3898 39.5763" stroke="#786AF9" stroke-width="1.44915"/>
<path d="M31.8813 33.7795L35.2627 40.5423" stroke="#786AF9" stroke-width="1.44915"/>
<path d="M20.2881 35.7117L31.3983 47.3049" stroke="#786AF9" stroke-width="1.44915"/>
<path d="M21.2542 46.3388L31.8814 34.7456" stroke="#786AF9" stroke-width="1.44915"/>
<path d="M16.9068 39.5762L26.0848 55.5168" stroke="#786AF9" stroke-width="1.44915"/>
<path d="M35.7458 39.093L26.5678 55.5167" stroke="#786AF9" stroke-width="1.44915"/>
<path d="M17.8729 39.093C7.1798 41.4177 1.40881 46.8745 0.990584 55.0328C0.963269 55.5657 1.39865 55.9998 1.9322 55.9998H50.1631C50.7248 55.9998 51.1699 55.5188 51.1039 54.9609C49.6725 42.8524 39.6356 40.9728 34.7797 39.093" stroke="#786AF9" stroke-width="1.44915"/>
<path d="M37.678 44.4067L39.6102 45.3728" stroke="#786AF9" stroke-width="1.44915"/>
<path d="M41.5424 46.3389C44.6339 48.6575 45.7288 50.8474 45.8898 51.6524" stroke="#786AF9" stroke-width="1.44915"/>
</svg>
