<svg width="57" height="57" viewBox="0 0 57 57" fill="none" xmlns="http://www.w3.org/2000/svg">
<g clip-path="url(#clip0_15_2092)">
<g clip-path="url(#clip1_15_2092)">
<g clip-path="url(#clip2_15_2092)">
<path d="M1.35718 53.6831V36.4927C1.35718 35.993 1.76226 35.5879 2.26194 35.5879H9.04765C9.54735 35.5879 9.95242 35.993 9.95242 36.4927V53.6831C9.95242 54.1828 9.54735 54.5879 9.04765 54.5879H2.26194C1.76226 54.5879 1.35718 54.1828 1.35718 53.6831Z" stroke="#786AF9" stroke-width="1.35714"/>
<path d="M10.4048 37.3974C15.9009 34.8607 16.2606 26.3976 17.0226 22.3467C17.1072 21.897 17.5381 21.6014 17.9855 21.6973C23.7392 22.9315 21.5031 28.9258 21.2748 32.9079C21.2469 33.3938 21.6472 33.7784 22.1338 33.7784H33.0238M28.5 50.0641C36.6019 50.6639 32.1643 56.9366 25.8812 55.2174C25.8187 55.2003 25.7531 55.1887 25.6883 55.1845L16.3924 54.5947C16.3216 54.5902 16.2514 54.5773 16.1836 54.5564L10.4048 52.7784" stroke="#786AF9" stroke-width="1.35714"/>
<path d="M33.0238 33.7783C37.5476 34.6831 35.2857 39.2069 32.5714 39.2069" stroke="#786AF9" stroke-width="1.35714"/>
<path d="M28.0476 39.2065C40.7143 37.8496 33.4762 46.4448 27.1429 44.1827" stroke="#786AF9" stroke-width="1.35714"/>
<path d="M28.5 44.6352C39.8095 44.1829 32.5714 52.3257 26.6905 49.6114" stroke="#786AF9" stroke-width="1.35714"/>
<path d="M13.5714 9.80225V14.7784" stroke="#786AF9" stroke-width="1.35714"/>
<path d="M45.6905 41.9211V46.8973" stroke="#786AF9" stroke-width="1.35714"/>
<path d="M10.8572 12.5164H16.2857" stroke="#786AF9" stroke-width="1.35714"/>
<path d="M42.9762 44.6355H48.4048" stroke="#786AF9" stroke-width="1.35714"/>
<path d="M38.3243 5.3907L38.1371 6.88593C38.0657 7.45623 38.5402 7.94477 39.1148 7.93579C43.4631 7.8679 44.5232 9.80674 42.295 11.4539C42.1514 11.5602 41.9749 11.6116 41.7963 11.6116H36.1893C34.4248 11.6116 31.8012 14.3354 34.607 16.4288C34.7501 16.5356 34.9279 16.5878 35.1066 16.5878H38.3048C38.4021 16.5878 38.5023 16.6044 38.5942 16.6362C46.2221 19.2799 44.0599 26.7754 39.1269 28.5938C38.7374 28.7373 38.4517 29.0934 38.4517 29.5085V31.064C38.4517 31.5637 38.0465 31.9688 37.5469 31.9688H35.7374C35.2377 31.9688 34.8326 31.5637 34.8326 31.064V29.7069C34.8326 29.2072 34.4275 28.8021 33.9278 28.8021H32.1186C28.9511 28.8021 28.9516 25.1831 32.1186 25.1831H38.2114C38.3688 25.1831 38.5252 25.1444 38.6546 25.0548C39.6225 24.3837 40.7032 22.7667 38.8027 20.5825C38.5941 20.3428 38.2628 20.2594 37.9466 20.2917C36.652 20.4238 34.6066 20.0939 33.0228 19.3021C31.2551 18.4184 26.036 11.4922 34.2252 8.21979C34.5822 8.07712 34.8326 7.73516 34.8326 7.35069V5.2783C34.8326 4.77862 35.2377 4.37354 35.7374 4.37354H37.4265C37.9708 4.37354 38.3919 4.85063 38.3243 5.3907Z" stroke="#786AF9" stroke-width="1.35714"/>
<path d="M18.5476 19.7545C19.4524 2.56388 34.3809 -0.15028 40.2619 1.20687C53.8333 4.33873 55.1905 15.2305 55.1905 19.7545C53.3809 32.8734 44.3333 36.04 39.3571 37.3974" stroke="#786AF9" stroke-width="1.35714"/>
</g>
</g>
</g>
<defs>
<clipPath id="clip0_15_2092">
<rect width="57" height="57" fill="white"/>
</clipPath>
<clipPath id="clip1_15_2092">
<rect width="57" height="57" fill="white"/>
</clipPath>
<clipPath id="clip2_15_2092">
<rect width="56.0952" height="57" fill="white" transform="translate(0.452393)"/>
</clipPath>
</defs>
</svg>
