<svg width="55" height="57" viewBox="0 0 55 57" fill="none" xmlns="http://www.w3.org/2000/svg">
<g clip-path="url(#clip0_15_2109)">
<g clip-path="url(#clip1_15_2109)">
<path d="M2.80328 54.1967V42.0492C2.80328 41.5331 3.22164 41.1147 3.7377 41.1147H10.7459C11.262 41.1147 11.6803 41.5331 11.6803 42.0492V54.1967C11.6803 54.7128 11.262 55.1311 10.7459 55.1311H3.7377C3.22164 55.1311 2.80328 54.7128 2.80328 54.1967Z" stroke="#786AF9" stroke-width="1.40164"/>
<path d="M6.54099 49.9917V51.3933" stroke="#786AF9" stroke-width="1.40164"/>
<path d="M11.6803 42.5163C15.0443 39.1524 21.8419 38.7787 22.8934 39.7131C27.0984 43.4505 30.9918 42.5163 33.6393 42.5163C35.5082 42.5163 35.9754 45.3194 35.9754 46.721" stroke="#786AF9" stroke-width="1.40164"/>
<path d="M26.1639 49.5249C29.4798 48.0512 34.5814 47.667 36.8147 47.6563C36.8794 47.6559 36.9422 47.6493 37.0054 47.6358C43.9651 46.159 49.6834 43.6727 51.774 42.563C51.8334 42.5315 51.8954 42.5064 51.9605 42.4895C54.2677 41.8909 54.4825 43.9976 54.2655 45.4186C54.2291 45.6568 54.0848 45.8618 53.8843 45.9955L39.0141 55.9091C38.8606 56.0114 38.6802 56.0661 38.4957 56.0661H16.3525C13.3623 55.6923 11.9918 54.6644 11.6803 54.1972" stroke="#786AF9" stroke-width="1.40164"/>
<path d="M28.9672 15.8854V18.5848C28.9672 18.8715 29.1996 19.1039 29.4864 19.1039H30.0262C30.5423 19.1039 30.9606 19.5223 30.9606 20.0383V23.8799C30.9606 24.3959 30.5423 24.8144 30.0262 24.8144H29.9016C29.3856 24.8144 28.9672 25.2327 28.9672 25.7488V28.0329C28.9672 28.549 29.3856 28.9673 29.9016 28.9673H35.5082C36.0243 28.9673 36.4426 28.549 36.4426 28.0329V25.5619C36.4426 25.149 36.1079 24.8144 35.6951 24.8144C35.2822 24.8144 34.9475 24.4796 34.9475 24.0668V15.8854C34.9475 15.3693 34.5292 14.9509 34.0131 14.9509H29.9016C29.3856 14.9509 28.9672 15.3693 28.9672 15.8854Z" stroke="#786AF9" stroke-width="1.40164"/>
<path d="M32.2377 6.54102C33.5279 6.54102 34.5738 7.58691 34.5738 8.87708C34.5738 10.1672 33.5279 11.2131 32.2377 11.2131C30.9475 11.2131 29.9016 10.1672 29.9016 8.87708C29.9016 7.58691 30.9475 6.54102 32.2377 6.54102Z" stroke="#786AF9" stroke-width="1.40164"/>
<path d="M32.2377 0.934326C41.785 0.934326 49.5246 8.67393 49.5246 18.2212C49.5246 27.7685 41.785 35.5081 32.2377 35.5081C22.6904 35.5081 14.9508 27.7685 14.9508 18.2212C14.9508 8.67393 22.6904 0.934326 32.2377 0.934326Z" stroke="#786AF9" stroke-width="1.40164"/>
</g>
</g>
<defs>
<clipPath id="clip0_15_2109">
<rect width="55" height="57" fill="white"/>
</clipPath>
<clipPath id="clip1_15_2109">
<rect width="53.2623" height="57" fill="white" transform="translate(1.86885)"/>
</clipPath>
</defs>
</svg>
