<svg width="57" height="57" viewBox="0 0 57 57" fill="none" xmlns="http://www.w3.org/2000/svg">
<g clip-path="url(#clip0_15_2125)">
<path d="M8.075 53.2V56.05" stroke="#786AF9" stroke-width="1.425"/>
<path d="M26.6 53.2V56.05" stroke="#786AF9" stroke-width="1.425"/>
<path d="M17.575 41.8L19.9051 45.5281C19.935 45.576 19.9607 45.6282 19.9834 45.6798C20.9753 47.9424 24.2142 46.523 23.275 44.175L20.9 39.425" stroke="#786AF9" stroke-width="1.425"/>
<path d="M55.575 40.9938V43.6999C55.575 44.7493 54.7244 45.5999 53.675 45.5999H42.275C41.2256 45.5999 40.375 44.7493 40.375 43.6999V32.2999C40.375 31.2505 41.2256 30.3999 42.275 30.3999H53.675C54.7244 30.3999 55.575 31.2505 55.575 32.2999V38.2302" stroke="#786AF9" stroke-width="1.425"/>
<path d="M50.825 37.9999C50.825 39.574 49.5491 40.8499 47.975 40.8499C46.4009 40.8499 45.125 39.574 45.125 37.9999C45.125 36.4258 46.4009 35.1499 47.975 35.1499C49.5491 35.1499 50.825 36.4258 50.825 37.9999Z" stroke="#786AF9" stroke-width="1.425"/>
<path d="M31.825 8.54995C31.825 12.7473 28.4224 16.15 24.225 16.15C20.0276 16.15 16.625 12.7473 16.625 8.54995C16.625 4.35259 20.0276 0.949951 24.225 0.949951C28.4224 0.949951 31.825 4.35259 31.825 8.54995Z" stroke="#786AF9" stroke-width="1.425"/>
<path d="M21.85 10.1748V6.70966C21.85 6.01636 22.5686 5.55657 23.1982 5.8471L26.4157 7.33217C27.1042 7.6499 27.1613 8.60642 26.5156 9.0038L23.2979 10.9839C22.6649 11.3734 21.85 10.9181 21.85 10.1748Z" stroke="#786AF9" stroke-width="1.425"/>
<path d="M32.775 20.425L36.575 15.2" stroke="#786AF9" stroke-width="1.425"/>
<path d="M35.625 23.75L40.375 19.95" stroke="#786AF9" stroke-width="1.425"/>
<path d="M38.475 27.075L44.175 26.125" stroke="#786AF9" stroke-width="1.425"/>
<path d="M29.925 23.7501L29.053 22.0061C28.7739 21.4477 28.0413 21.3058 27.5739 21.7193L16.2116 31.7706C16.1706 31.8068 16.1265 31.8395 16.08 31.8681L10.6786 35.1921C10.2751 35.4404 10.1163 35.948 10.3062 36.3819L12.9099 42.3334C13.1238 42.8223 13.6983 43.0391 14.182 42.8134L20.425 39.9001L35.0534 34.5806C35.6026 34.3809 35.8429 33.7374 35.5592 33.2265L31.35 25.6501" stroke="#786AF9" stroke-width="1.425"/>
<path d="M18.525 37.525L15.675 32.3" stroke="#786AF9" stroke-width="1.425"/>
<path d="M6.175 13.7749H9.5" stroke="#786AF9" stroke-width="1.425"/>
<path d="M4.27499 17.575H9.49999" stroke="#786AF9" stroke-width="1.425"/>
<path d="M4.27499 21.8501H9.49999" stroke="#786AF9" stroke-width="1.425"/>
<path d="M11.4 9.9751H1.9C1.37533 9.9751 0.949997 10.4004 0.949997 10.9251V24.2251C0.949997 24.7498 1.37533 25.1751 1.9 25.1751H11.4C11.9247 25.1751 12.35 24.7498 12.35 24.2251V10.9251C12.35 10.4004 11.9247 9.9751 11.4 9.9751Z" stroke="#786AF9" stroke-width="1.425"/>
<path d="M13.775 29.925H4.75C4.22534 29.925 3.8 30.3504 3.8 30.875V50.35" stroke="#786AF9" stroke-width="1.425"/>
<path d="M10.9256 38C6.17536 39.425 7.1247 45.125 12.8256 41.8" stroke="#786AF9" stroke-width="1.425"/>
<path d="M30.4 39.8999V49.8749" stroke="#786AF9" stroke-width="1.425"/>
<path d="M32.775 50.3501H2.22683C1.59047 50.3501 1.08658 50.9748 1.17413 51.6051C1.43263 53.4661 1.83806 56.0501 5.22501 56.0501H29.7708C29.8729 56.0501 29.9755 56.0338 30.0718 55.9996C32.4674 55.1483 33.4687 53.4603 33.6807 51.2989C33.7319 50.7766 33.2997 50.3501 32.775 50.3501Z" stroke="#786AF9" stroke-width="1.425"/>
</g>
<defs>
<clipPath id="clip0_15_2125">
<rect width="57" height="57" fill="white"/>
</clipPath>
</defs>
</svg>
