<svg width="15" height="15" viewBox="0 0 15 15" fill="none" xmlns="http://www.w3.org/2000/svg">
<g clip-path="url(#clip0_243_2)">
<path d="M4.92188 4.6875H2.8125V7.03125H4.6875H4.92188C5.57812 7.03125 6.09375 6.51562 6.09375 5.85938C6.09375 5.20313 5.57812 4.6875 4.92188 4.6875Z" fill="black"/>
<path d="M10.7812 0H4.21875C1.875 0 0 1.875 0 4.21875V10.7812C0 13.125 1.875 15 4.21875 15H10.7812C13.125 15 15 13.125 15 10.7812V4.21875C15 1.875 13.125 0 10.7812 0Z" fill="#786AF9"/>
<path d="M8.90625 5.625H11.7188C12 5.625 12.1875 5.4375 12.1875 5.15625C12.1875 4.875 12 4.6875 11.7188 4.6875H8.90625C8.625 4.6875 8.4375 4.875 8.4375 5.15625C8.4375 5.4375 8.625 5.625 8.90625 5.625Z" fill="white"/>
<path d="M13.125 8.90625C13.125 7.35938 11.8594 6.09375 10.3125 6.09375C8.76563 6.09375 7.5 7.35938 7.5 8.90625C7.5 10.4531 8.76563 11.7188 10.3125 11.7188C10.9687 11.7188 11.5781 11.4844 12.0937 11.0625C12.375 10.8281 12.5625 10.5938 12.75 10.3125C12.8906 10.0781 12.7969 9.79688 12.5625 9.65625C12.3281 9.51563 12.0469 9.60938 11.9062 9.84375C11.8125 10.0313 11.625 10.2188 11.4844 10.3594C11.1563 10.6406 10.7344 10.7812 10.3125 10.7812C9.42188 10.7812 8.71875 10.1719 8.48438 9.375H12.6562C12.9375 9.375 13.125 9.1875 13.125 8.90625ZM8.48438 8.4375C8.67188 7.64062 9.42188 7.03125 10.3125 7.03125C11.2031 7.03125 11.9062 7.64062 12.1406 8.4375H8.48438Z" fill="white"/>
<path d="M7.03125 5.85938C7.03125 4.6875 6.09375 3.75 4.92188 3.75H2.34375C2.0625 3.75 1.875 3.9375 1.875 4.21875V7.5V11.25C1.875 11.5313 2.0625 11.7188 2.34375 11.7188H4.6875C6 11.7188 7.03125 10.6875 7.03125 9.375C7.03125 8.625 6.70313 8.01563 6.14063 7.54688C6.70313 7.17188 7.03125 6.5625 7.03125 5.85938ZM4.6875 10.7812H2.8125V7.96875H4.6875C5.48438 7.96875 6.09375 8.57812 6.09375 9.375C6.09375 10.1719 5.48438 10.7812 4.6875 10.7812ZM4.92188 7.03125H4.6875H2.8125V4.6875H4.92188C5.57812 4.6875 6.09375 5.20313 6.09375 5.85938C6.09375 6.51562 5.57812 7.03125 4.92188 7.03125Z" fill="white"/>
</g>
<defs>
<clipPath id="clip0_243_2">
<rect width="15" height="15" fill="white"/>
</clipPath>
</defs>
</svg>
