<svg width="64" height="41" viewBox="0 0 64 41" fill="none" xmlns="http://www.w3.org/2000/svg">
<g clip-path="url(#clip0_162_2)">
<path fill-rule="evenodd" clip-rule="evenodd" d="M31.9894 0.170288C25.9794 0.174195 19.9598 1.93092 15.077 5.43883C12.5309 7.26795 10.4913 9.44016 8.96696 11.8168C8.94978 11.8436 8.93163 11.87 8.91457 11.8969C8.69539 12.2408 8.48698 12.589 8.28947 12.941C8.06898 12.9146 7.85538 12.8827 7.629 12.8827C3.69912 12.8827 0.534885 15.5919 0.534885 18.9565V18.9613V26.4632V26.4679C0.534885 29.8325 3.69911 32.5417 7.629 32.5417C7.85405 32.5417 8.06741 32.5 8.28658 32.4832C8.56934 32.985 8.86175 33.483 9.19148 33.9724C9.21247 34.0044 9.23544 34.0329 9.25751 34.063C9.66827 34.8394 13.0669 40.8297 20.5282 40.8297L31.9999 40.8288L43.4718 40.8297C50.9356 40.8297 54.3339 34.8355 54.7428 34.0623C54.7647 34.0324 54.7875 34.0042 54.8083 33.9724C55.138 33.483 55.4307 32.985 55.7134 32.4832C55.9326 32.5 56.146 32.5417 56.371 32.5417C60.3009 32.5417 63.4651 29.8325 63.4651 26.4679V26.4632V18.9613V18.9565C63.4651 15.5919 60.3009 12.8827 56.371 12.8827C56.1447 12.8827 55.9309 12.9147 55.7105 12.941C55.513 12.589 55.3044 12.2408 55.0852 11.8969C55.0621 11.8605 55.0375 11.8248 55.0142 11.7885C53.4918 9.42301 51.459 7.26066 48.923 5.43883C44.0402 1.93092 38.0206 0.174637 32.0106 0.170513C32.0071 0.170513 32.0035 0.170288 31.9999 0.170288C31.9963 0.170288 31.9929 0.170288 31.9894 0.170288ZM31.9991 3.51157C32.1589 3.51157 32.3187 3.51288 32.4785 3.51592C32.479 3.51593 32.4795 3.51591 32.48 3.51592C32.6393 3.51895 32.7987 3.5233 32.9579 3.52916C32.9584 3.52918 32.9589 3.52914 32.9594 3.52916C33.1186 3.53502 33.2777 3.54239 33.4368 3.55112C33.4373 3.55114 33.4378 3.55109 33.4383 3.55112C33.5974 3.55989 33.7563 3.57017 33.9151 3.58185C38.3776 3.9096 42.75 5.38432 46.3996 8.00632C54.7415 13.9993 56.85 24.2313 51.4051 32.3058C51.4011 32.3114 51.3987 32.3168 51.3949 32.3224L51.348 32.3892L51.3268 32.4343C51.3055 32.471 51.2858 32.5076 51.2678 32.544C51.0586 32.9241 48.45 37.4817 43.4716 37.4817L36.974 37.4321C36.4005 36.694 35.4473 36.1931 34.3494 36.1311C34.3422 36.1307 34.335 36.1303 34.3277 36.1298C34.2587 36.1264 34.1895 36.124 34.1194 36.124H34.1174H29.8802C29.8102 36.124 29.7407 36.1262 29.6717 36.1298C29.6643 36.1303 29.657 36.1307 29.6497 36.1311C28.552 36.1932 27.5989 36.694 27.0254 37.4321L20.5281 37.4817C15.5523 37.4817 12.9437 32.9293 12.7321 32.5449C12.7138 32.5077 12.6936 32.4705 12.6719 32.433L12.6514 32.3892L12.6048 32.3228C12.6007 32.3172 12.5982 32.3115 12.5943 32.3058C7.14945 24.2313 9.25823 13.9993 17.6001 8.00629C21.2497 5.3843 25.6218 3.90957 30.0843 3.58182C30.7213 3.53508 31.3603 3.51157 31.9991 3.51157ZM22.874 10.8323C22.5635 10.8349 22.2592 10.8569 21.961 10.8998C21.9509 10.9011 21.9409 10.9029 21.9309 10.9046C21.8404 10.9181 21.7506 10.9337 21.6613 10.9514C21.6338 10.9569 21.6062 10.9622 21.5788 10.968C21.5391 10.9766 21.4995 10.9855 21.4601 10.9949C21.4106 11.0067 21.3612 11.0194 21.3121 11.0326C21.2795 11.0414 21.247 11.0503 21.2146 11.0597C21.1534 11.0775 21.0926 11.0968 21.032 11.1169C21.0093 11.1245 20.9866 11.1323 20.9639 11.1402C20.8925 11.1652 20.8214 11.1912 20.7509 11.2197C20.7479 11.221 20.7443 11.2223 20.741 11.2236C20.7408 11.2236 20.7406 11.2237 20.7404 11.2238C20.6628 11.2553 20.5859 11.2899 20.5093 11.3258C20.4984 11.331 20.4873 11.336 20.4763 11.3413C20.3183 11.4171 20.1625 11.5027 20.0092 11.5986C20.0051 11.6012 20.0014 11.6037 19.9974 11.6063C19.839 11.7061 19.6831 11.8171 19.5298 11.9403C19.4518 12.0029 19.3742 12.0677 19.2977 12.1368C16.047 15.0667 14.0341 19.0545 14.0341 23.3014C14.0341 26.5065 15.1796 30.5159 17.1386 30.8124C17.3058 30.8377 17.4802 30.8546 17.6589 30.8669C17.6766 30.8686 17.6938 30.8718 17.7116 30.8729C17.7308 30.8742 17.7509 30.8742 17.7703 30.8755C18.6437 30.9233 19.6523 30.8279 20.7669 30.6642C20.7689 30.6639 20.7715 30.6638 20.7734 30.6634C20.7765 30.6629 20.7798 30.6621 20.7829 30.6616C22.0062 30.4815 23.3566 30.2205 24.8114 29.9685C24.8244 29.9664 24.8375 29.964 24.8505 29.9618C25.1221 29.9148 25.3983 29.8687 25.6768 29.8232C25.7759 29.807 25.8763 29.7913 25.9762 29.7754C26.1995 29.7399 26.4241 29.7052 26.6514 29.6715C26.783 29.6521 26.9167 29.6339 27.0496 29.6152C27.2788 29.5831 27.5079 29.5508 27.7407 29.5215C27.7728 29.5176 27.805 29.5136 27.8371 29.5096C27.9647 29.4938 28.0929 29.4783 28.2215 29.4636C28.2716 29.4579 28.3219 29.4524 28.3721 29.4468C28.4947 29.4332 28.6175 29.4199 28.741 29.4073C28.8003 29.4013 28.8599 29.3958 28.9194 29.39C29.0334 29.379 29.1476 29.368 29.2623 29.358C29.3309 29.352 29.4 29.3465 29.4688 29.3409C29.5814 29.3317 29.694 29.3226 29.8073 29.3144C29.8771 29.3094 29.9473 29.3051 30.0174 29.3005C30.123 29.2936 30.2285 29.2865 30.3347 29.2806C30.4333 29.2751 30.5324 29.2706 30.6315 29.266C30.7162 29.2621 30.8006 29.2576 30.8856 29.2543C30.9985 29.25 31.112 29.2471 31.2254 29.244C31.2965 29.2422 31.3672 29.2393 31.4384 29.2379C31.6168 29.2345 31.7958 29.2327 31.9755 29.2326C31.9834 29.2325 31.9912 29.2323 31.9991 29.2323C32.0074 29.2323 32.0156 29.2326 32.024 29.2326C32.2038 29.2327 32.383 29.2343 32.5616 29.2379C32.6311 29.2392 32.7002 29.2423 32.7696 29.244C32.8847 29.247 33 29.2499 33.1146 29.2543C33.1994 29.2573 33.2835 29.262 33.368 29.266C33.4668 29.2706 33.5659 29.2748 33.6643 29.2803C33.7714 29.2863 33.8779 29.2938 33.9844 29.3007C34.0539 29.3053 34.1235 29.3094 34.1927 29.3144C34.3059 29.3226 34.4186 29.3316 34.5312 29.3409C34.5999 29.3465 34.6689 29.352 34.7374 29.358C34.8537 29.3682 34.9694 29.3793 35.085 29.3905C35.1422 29.396 35.1994 29.4013 35.2564 29.407C35.381 29.4197 35.505 29.4332 35.6286 29.447C35.6784 29.4525 35.7283 29.4579 35.778 29.4636C35.9087 29.4785 36.0387 29.4942 36.1683 29.5102C36.1976 29.5137 36.2269 29.5173 36.2561 29.521C36.4913 29.5506 36.7226 29.5834 36.954 29.6159C37.0855 29.6343 37.2176 29.652 37.3478 29.6713C37.5752 29.7049 37.8 29.7398 38.0235 29.7753C38.1234 29.7912 38.2239 29.807 38.3229 29.8231C38.6014 29.8686 38.8776 29.9148 39.1492 29.9617C39.1622 29.9639 39.1753 29.9662 39.1883 29.9685C40.6424 30.2204 41.9922 30.4812 43.215 30.6614C43.2214 30.6622 43.2278 30.6635 43.2341 30.6644C44.3481 30.8279 45.3563 30.9231 46.2294 30.8755C46.2489 30.8746 46.2691 30.8742 46.2884 30.8729C46.3063 30.8716 46.3237 30.8684 46.3416 30.8668C46.5201 30.8546 46.6945 30.8376 46.8614 30.8123C48.8204 30.5158 49.9659 26.5064 49.9659 23.3014C49.9659 19.0545 47.9529 15.0666 44.7023 12.1367C44.4764 11.9331 44.2441 11.7586 44.0065 11.6087C43.9998 11.6043 43.9932 11.6002 43.9865 11.5961C43.8352 11.5016 43.6816 11.4172 43.5257 11.3424C43.5136 11.3366 43.5014 11.3309 43.4893 11.3252C43.4132 11.2894 43.3368 11.2551 43.2596 11.2238C43.259 11.2235 43.258 11.2233 43.2575 11.2229C43.2545 11.2216 43.2514 11.2207 43.2483 11.2194C43.1791 11.1915 43.1091 11.1657 43.039 11.1411C43.0145 11.1325 42.99 11.1242 42.9654 11.116C42.9038 11.0955 42.8421 11.0762 42.7799 11.0581C42.7514 11.0498 42.7228 11.0421 42.6942 11.0344C42.6429 11.0205 42.5914 11.0072 42.5397 10.9949C42.4997 10.9853 42.4596 10.9764 42.4194 10.9677C42.3934 10.9622 42.3672 10.957 42.3411 10.9518C42.25 10.9337 42.1583 10.9178 42.066 10.904C42.0572 10.9027 42.0484 10.9014 42.0395 10.9001C41.5618 10.8312 41.0682 10.8181 40.5596 10.8465C39.1378 10.9264 37.6005 11.3195 35.98 11.6511C35.9634 11.6546 35.9469 11.6578 35.9302 11.6612C35.2207 11.8057 34.4951 11.9375 33.7565 12.0255C33.7206 12.0298 33.6845 12.0333 33.6486 12.0374C33.5109 12.053 33.3727 12.0669 33.2341 12.0791C33.1808 12.0838 33.1273 12.0879 33.0738 12.0921C32.9445 12.1022 32.8148 12.1103 32.6847 12.117C32.6274 12.1201 32.5703 12.1238 32.5129 12.126C32.4772 12.1273 32.4415 12.1286 32.4057 12.1295C32.272 12.1338 32.138 12.1366 32.0036 12.1366C32.0025 12.1366 32.0015 12.1366 32.0005 12.1366C31.999 12.1366 31.9975 12.1366 31.996 12.1366C31.8615 12.1366 31.7278 12.1336 31.5941 12.1295C31.5583 12.1282 31.5226 12.1273 31.4869 12.126C31.4296 12.1238 31.3725 12.12 31.3153 12.117C31.1851 12.1103 31.0552 12.1022 30.9258 12.0921C30.8722 12.0878 30.8188 12.0838 30.7654 12.0791C30.6268 12.0669 30.4887 12.053 30.3509 12.0374C30.3151 12.0335 30.2791 12.0297 30.2433 12.0255C29.5038 11.9374 28.7776 11.8054 28.0672 11.6608C28.0534 11.6577 28.0396 11.6551 28.0258 11.6522C26.4031 11.3204 24.8638 10.9266 23.4402 10.8465C23.2493 10.8359 23.0607 10.8308 22.874 10.8323ZM22.7106 18.0674C22.7672 18.0674 22.8234 18.0687 22.8793 18.0713C22.8798 18.0713 22.8803 18.0712 22.8813 18.0713C22.9366 18.0739 22.9916 18.0773 23.0461 18.082C24.7006 18.2264 25.9917 19.4226 25.9922 20.8771C25.9916 22.3317 24.7006 23.5279 23.0461 23.6722C22.9364 23.6818 22.8252 23.6867 22.7126 23.6868C22.656 23.6868 22.5998 23.6855 22.5439 23.6829C20.8103 23.6072 19.4315 22.3801 19.4309 20.877C19.4315 19.374 20.8102 18.147 22.5439 18.0712C22.5991 18.069 22.6546 18.0674 22.7106 18.0674ZM41.2876 18.0674C41.3442 18.0674 41.4004 18.0687 41.4563 18.0713C41.4568 18.0713 41.4573 18.0712 41.4583 18.0713C41.5136 18.0739 41.5686 18.0773 41.6231 18.082C43.2776 18.2264 44.5687 19.4226 44.5692 20.8771C44.5687 22.3317 43.2776 23.5279 41.6231 23.6722C41.5134 23.6818 41.4023 23.6867 41.2896 23.6868C41.2324 23.6868 41.1753 23.6855 41.1188 23.6829C41.0635 23.6803 41.0086 23.6769 40.954 23.6721C39.2995 23.5278 38.0086 22.3316 38.008 20.877C38.0084 19.4225 39.2995 18.2263 40.954 18.0819C41.0637 18.0724 41.1749 18.0674 41.2876 18.0674Z" fill="#786AF9"/>
</g>
<defs>
<clipPath id="clip0_162_2">
<rect width="64" height="41" fill="white"/>
</clipPath>
</defs>
</svg>
