<svg width="140" height="140" viewBox="0 0 140 140" fill="none" xmlns="http://www.w3.org/2000/svg">
<g filter="url(#filter0_d_80_4335)">
<rect x="20" y="13" width="100" height="100" rx="50" fill="#786AF9" shape-rendering="crispEdges"/>
<g clip-path="url(#clip0_80_4335)">
<g clip-path="url(#clip1_80_4335)">
<g clip-path="url(#clip2_80_4335)">
<path d="M81.5 67H57.6273C57.3887 67 57.158 67.0853 56.9768 67.2405L50.1505 73.0865C49.5017 73.6421 48.5 73.1812 48.5 72.327V42.5C48.5 41.9477 48.9477 41.5 49.5 41.5H81.5C82.0523 41.5 82.5 41.9477 82.5 42.5V66C82.5 66.5523 82.0523 67 81.5 67Z" stroke="#F6F9FF" stroke-width="1.5"/>
<path d="M56 50.5H75" stroke="#F6F9FF" stroke-width="1.5"/>
<path d="M56 56H69.5" stroke="#F6F9FF" stroke-width="1.5"/>
<path d="M60.5 72V78C60.5 78.5523 60.9477 79 61.5 79H84.1301C84.3688 79 84.5996 79.0854 84.7809 79.2407L89.8492 83.585C90.4979 84.141 91.5 83.6801 91.5 82.8258V54.5C91.5 53.9477 91.0523 53.5 90.5 53.5H86" stroke="#F6F9FF" stroke-width="1.5"/>
</g>
</g>
</g>
</g>
<defs>
<filter id="filter0_d_80_4335" x="0" y="0" width="140" height="140" filterUnits="userSpaceOnUse" color-interpolation-filters="sRGB">
<feFlood flood-opacity="0" result="BackgroundImageFix"/>
<feColorMatrix in="SourceAlpha" type="matrix" values="0 0 0 0 0 0 0 0 0 0 0 0 0 0 0 0 0 0 127 0" result="hardAlpha"/>
<feOffset dy="7"/>
<feGaussianBlur stdDeviation="10"/>
<feComposite in2="hardAlpha" operator="out"/>
<feColorMatrix type="matrix" values="0 0 0 0 0 0 0 0 0 0 0 0 0 0 0 0 0 0 0.45 0"/>
<feBlend mode="normal" in2="BackgroundImageFix" result="effect1_dropShadow_80_4335"/>
<feBlend mode="normal" in="SourceGraphic" in2="effect1_dropShadow_80_4335" result="shape"/>
</filter>
<clipPath id="clip0_80_4335">
<rect width="45" height="46" fill="white" transform="translate(47.5 40)"/>
</clipPath>
<clipPath id="clip1_80_4335">
<rect width="45" height="46" fill="white" transform="translate(47.5 40)"/>
</clipPath>
<clipPath id="clip2_80_4335">
<rect width="45" height="45" fill="white" transform="translate(47.5 40.5)"/>
</clipPath>
</defs>
</svg>
