<svg width="25" height="25" viewBox="0 0 25 25" fill="none" xmlns="http://www.w3.org/2000/svg">
<path fill-rule="evenodd" clip-rule="evenodd" d="M12.5 18.75C15.9518 18.75 18.75 15.9518 18.75 12.5C18.75 9.04822 15.9518 6.25 12.5 6.25C9.04822 6.25 6.25 9.04822 6.25 12.5C6.25 15.9518 9.04822 18.75 12.5 18.75ZM12.5 16.6667C14.8011 16.6667 16.6667 14.8011 16.6667 12.5C16.6667 10.1988 14.8011 8.33333 12.5 8.33333C10.1988 8.33333 8.33333 10.1988 8.33333 12.5C8.33333 14.8011 10.1988 16.6667 12.5 16.6667Z" fill="white"/>
<path d="M18.75 5.20825C18.1747 5.20825 17.7083 5.67463 17.7083 6.24992C17.7083 6.82521 18.1747 7.29158 18.75 7.29158C19.3253 7.29158 19.7917 6.82521 19.7917 6.24992C19.7917 5.67463 19.3253 5.20825 18.75 5.20825Z" fill="white"/>
<path fill-rule="evenodd" clip-rule="evenodd" d="M1.72288 4.45431C1.04167 5.79126 1.04167 7.54142 1.04167 11.0417V13.9584C1.04167 17.4587 1.04167 19.2089 1.72288 20.5458C2.32209 21.7218 3.27821 22.678 4.45423 23.2772C5.79118 23.9584 7.54135 23.9584 11.0417 23.9584H13.9583C17.4586 23.9584 19.2089 23.9584 20.5457 23.2772C21.7218 22.678 22.6779 21.7218 23.2771 20.5458C23.9583 19.2089 23.9583 17.4587 23.9583 13.9584V11.0417C23.9583 7.54142 23.9583 5.79126 23.2771 4.45431C22.6779 3.27829 21.7218 2.32216 20.5457 1.72296C19.2089 1.04175 17.4586 1.04175 13.9583 1.04175H11.0417C7.54135 1.04175 5.79118 1.04175 4.45423 1.72296C3.27821 2.32216 2.32209 3.27829 1.72288 4.45431ZM13.9583 3.12508H11.0417C9.25713 3.12508 8.04402 3.12671 7.10634 3.20331C6.19296 3.27794 5.72588 3.4132 5.40005 3.57922C4.61604 3.9787 3.97862 4.61611 3.57914 5.40012C3.41312 5.72596 3.27786 6.19304 3.20323 7.10641C3.12663 8.04409 3.12501 9.25721 3.12501 11.0417V13.9584C3.12501 15.743 3.12663 16.956 3.20323 17.8937C3.27786 18.8072 3.41312 19.2742 3.57914 19.6001C3.97862 20.384 4.61604 21.0214 5.40005 21.4209C5.72588 21.587 6.19296 21.7223 7.10634 21.7968C8.04402 21.8734 9.25713 21.8751 11.0417 21.8751H13.9583C15.7429 21.8751 16.9559 21.8734 17.8937 21.7968C18.8071 21.7223 19.2742 21.587 19.6 21.4209C20.384 21.0214 21.0214 20.384 21.4208 19.6001C21.5869 19.2742 21.7222 18.8072 21.7968 17.8937C21.8733 16.956 21.875 15.743 21.875 13.9584V11.0417C21.875 9.25721 21.8733 8.04409 21.7968 7.10641C21.7222 6.19304 21.5869 5.72596 21.4208 5.40012C21.0214 4.61611 20.384 3.9787 19.6 3.57922C19.2742 3.4132 18.8071 3.27794 17.8937 3.20331C16.9559 3.12671 15.7429 3.12508 13.9583 3.12508Z" fill="white"/>
</svg>
