<svg width="157" height="35" viewBox="0 0 157 35" fill="none" xmlns="http://www.w3.org/2000/svg">
<path d="M43 31V11.224L46.232 14.296H39.16V8.6H50.552V31H43ZM52.119 31L62.103 17.048L62.071 22.328L52.407 8.6H60.887L66.519 16.92L62.903 16.952L68.407 8.6H76.535L66.871 22.04V16.792L77.015 31H68.375L62.743 22.296L66.231 22.264L60.727 31H52.119ZM77.9178 31V8.6H89.8858C92.9791 8.6 95.2618 9.15467 96.7338 10.264C98.2058 11.352 98.9418 12.7493 98.9418 14.456C98.9418 15.5867 98.6218 16.6 97.9818 17.496C97.3631 18.3707 96.4564 19.064 95.2618 19.576C94.0671 20.088 92.5951 20.344 90.8458 20.344L91.4858 18.616C93.2351 18.616 94.7391 18.8613 95.9978 19.352C97.2778 19.8427 98.2591 20.5573 98.9418 21.496C99.6458 22.4133 99.9978 23.5227 99.9978 24.824C99.9978 26.7653 99.1871 28.28 97.5658 29.368C95.9658 30.456 93.6191 31 90.5258 31H77.9178ZM85.3418 25.72H89.8858C90.7178 25.72 91.3364 25.5707 91.7418 25.272C92.1684 24.9733 92.3818 24.536 92.3818 23.96C92.3818 23.384 92.1684 22.9467 91.7418 22.648C91.3364 22.3493 90.7178 22.2 89.8858 22.2H84.8298V17.208H88.8618C89.7151 17.208 90.3338 17.0693 90.7178 16.792C91.1231 16.4933 91.3258 16.0773 91.3258 15.544C91.3258 14.9893 91.1231 14.5733 90.7178 14.296C90.3338 14.0187 89.7151 13.88 88.8618 13.88H85.3418V25.72ZM114.412 31.512C112.598 31.512 110.913 31.224 109.356 30.648C107.82 30.072 106.486 29.2613 105.356 28.216C104.225 27.1493 103.34 25.9013 102.7 24.472C102.081 23.0427 101.772 21.4853 101.772 19.8C101.772 18.0933 102.081 16.536 102.7 15.128C103.34 13.6987 104.225 12.4613 105.356 11.416C106.486 10.3493 107.82 9.528 109.356 8.952C110.913 8.376 112.598 8.088 114.412 8.088C116.246 8.088 117.932 8.376 119.468 8.952C121.004 9.528 122.337 10.3493 123.468 11.416C124.598 12.4613 125.473 13.6987 126.092 15.128C126.732 16.536 127.052 18.0933 127.052 19.8C127.052 21.4853 126.732 23.0427 126.092 24.472C125.473 25.9013 124.598 27.1493 123.468 28.216C122.337 29.2613 121.004 30.072 119.468 30.648C117.932 31.224 116.246 31.512 114.412 31.512ZM114.412 25.4C115.116 25.4 115.766 25.272 116.364 25.016C116.982 24.76 117.516 24.3973 117.964 23.928C118.433 23.4373 118.796 22.8507 119.052 22.168C119.308 21.464 119.436 20.6747 119.436 19.8C119.436 18.9253 119.308 18.1467 119.052 17.464C118.796 16.76 118.433 16.1733 117.964 15.704C117.516 15.2133 116.982 14.84 116.364 14.584C115.766 14.328 115.116 14.2 114.412 14.2C113.708 14.2 113.046 14.328 112.428 14.584C111.83 14.84 111.297 15.2133 110.828 15.704C110.38 16.1733 110.028 16.76 109.772 17.464C109.516 18.1467 109.388 18.9253 109.388 19.8C109.388 20.6747 109.516 21.464 109.772 22.168C110.028 22.8507 110.38 23.4373 110.828 23.928C111.297 24.3973 111.83 24.76 112.428 25.016C113.046 25.272 113.708 25.4 114.412 25.4ZM134.344 31V14.456H127.784V8.6H148.456V14.456H141.896V31H134.344Z" fill="#786AF9"/>
<line x1="31.5" y1="8" x2="31.5" y2="31" stroke="white"/>
<path d="M22.1146 17.9089C21.6273 17.9089 21.2292 18.3155 21.2292 18.8218V20.1819C21.2292 20.6846 21.6234 21.0948 22.1146 21.0948C22.6019 21.0948 23 20.6883 23 20.1819V18.8218C22.9961 18.3155 22.6019 17.9089 22.1146 17.9089Z" fill="url(#paint0_linear_7_40)"/>
<path d="M0.885393 17.9089C0.394206 17.9089 0 18.3155 0 18.8218V20.1819C0 20.6846 0.394206 21.0948 0.885393 21.0948C1.37658 21.0948 1.7708 20.6883 1.7708 20.1819V18.8218C1.7708 18.3155 1.3727 17.9089 0.885393 17.9089Z" fill="url(#paint1_linear_7_40)"/>
<path d="M18.5735 14.8079C18.0862 14.8079 17.6881 15.2146 17.6881 15.7208V16.1533C17.6881 16.6559 17.2939 17.0662 16.8027 17.0662C16.3154 17.0662 15.9178 16.6596 15.9178 16.1533V12.8787C15.9178 12.376 15.5236 11.9657 15.0324 11.9657C14.5451 11.9657 14.147 12.3724 14.147 12.8787V21.4275H14.1436C14.1436 21.4423 14.147 21.457 14.147 21.4681C14.147 21.9707 13.7528 22.381 13.2616 22.381C12.7743 22.381 12.3762 21.9744 12.3762 21.4681C12.3762 21.4533 12.3801 21.4385 12.3801 21.4275H12.3762V8.9129C12.3762 8.41025 11.982 8 11.4913 8C11.0035 8 10.6059 8.40655 10.6059 8.9129V17.118H10.6093C10.5807 17.5984 10.201 17.9791 9.73115 17.9791C9.26178 17.9791 8.87824 17.5984 8.85302 17.118H8.84964V12.8787C8.84964 12.376 8.45542 11.9657 7.96423 11.9657C7.47304 11.9657 7.07883 12.3724 7.07883 12.8787V19.0509C7.07883 19.5536 6.68463 19.9639 6.19344 19.9639C5.70274 19.9639 5.30852 19.5573 5.30852 19.0509V15.7208C5.30852 15.2182 4.91383 14.8079 4.42313 14.8079C3.93194 14.8079 3.53772 15.2146 3.53772 15.7208V23.2865C3.53772 23.7892 3.93194 24.1994 4.42313 24.1994C4.91383 24.1994 5.30852 23.7929 5.30852 23.2865V22.3847C5.30852 21.8821 5.70274 21.4718 6.19344 21.4718C6.68463 21.4718 7.07883 21.8784 7.07883 22.3847V26.1287C7.07883 26.6313 7.47304 27.0416 7.96423 27.0416C8.45542 27.0416 8.84964 26.635 8.84964 26.1287V20.4443C8.84964 19.9416 9.24384 19.5314 9.73503 19.5314C10.2223 19.5314 10.6199 19.938 10.6199 20.4443V30.0871C10.6199 30.5898 11.0142 31 11.5053 31C11.9927 31 12.3907 30.5935 12.3907 30.0871V24.6096C12.3907 24.107 12.785 23.6968 13.2761 23.6968C13.7635 23.6968 14.1615 24.1033 14.1615 24.6096V26.125C14.1615 26.6276 14.5558 27.0379 15.0465 27.0379C15.5343 27.0379 15.9319 26.6313 15.9319 26.125V19.3356C15.9319 18.8329 16.3261 18.4226 16.8173 18.4226C17.3046 18.4226 17.7027 18.8292 17.7027 19.3356V23.2828C17.7027 23.7855 18.0969 24.1957 18.588 24.1957C19.0754 24.1957 19.473 23.7892 19.473 23.2828V15.7172C19.4589 15.2145 19.0647 14.8079 18.5735 14.8079Z" fill="url(#paint2_linear_7_40)"/>
<defs>
<linearGradient id="paint0_linear_7_40" x1="22.1131" y1="31.0752" x2="22.1131" y2="11.9055" gradientUnits="userSpaceOnUse">
<stop stop-color="#786AF9"/>
<stop offset="1" stop-color="#786AF9"/>
</linearGradient>
<linearGradient id="paint1_linear_7_40" x1="0.884431" y1="31.0752" x2="0.884431" y2="11.9055" gradientUnits="userSpaceOnUse">
<stop stop-color="#786AF9"/>
<stop offset="1" stop-color="#786AF9"/>
</linearGradient>
<linearGradient id="paint2_linear_7_40" x1="11.499" y1="31.0752" x2="11.499" y2="11.9055" gradientUnits="userSpaceOnUse">
<stop stop-color="#786AF9"/>
<stop offset="1" stop-color="#786AF9"/>
</linearGradient>
</defs>
</svg>
