<svg width="34" height="54" viewBox="0 0 34 54" fill="none" xmlns="http://www.w3.org/2000/svg">
<g clip-path="url(#clip0_163_6)">
<path d="M17.0056 37.7611C23.0638 37.7611 27.9763 33.3416 27.9763 27.8876V9.93425C27.9763 4.48194 23.0638 0.0623779 17.0056 0.0623779C10.9475 0.0623779 6.035 4.48194 6.035 9.93425V27.8876C6.035 33.3399 10.9475 37.7611 17.0056 37.7611ZM8.03 9.93594C8.03 5.48263 12.0556 1.85957 17.0056 1.85957C21.9556 1.85957 25.9813 5.48263 25.9813 9.93594V27.8893C25.9813 32.3443 21.9556 35.9673 17.0056 35.9673C12.0556 35.9673 8.03 32.3443 8.03 27.8893V9.93594Z" fill="#786AF9"/>
<path d="M31.9588 18.9119V27.8877C31.9588 35.311 25.2481 41.3506 17 41.3506C8.75189 41.3506 2.04126 35.311 2.04126 27.8877V18.9119H0.0462646V27.8877C0.0462646 36.0383 7.19001 42.6972 16.1356 43.1056H16.0081V52.1404H7.02689V53.9359H26.9713V52.1404H18.0013V43.1056H17.8644C26.81 42.6955 33.9538 36.0366 33.9538 27.8877V18.9119H31.9588Z" fill="#786AF9"/>
</g>
<defs>
<clipPath id="clip0_163_6">
<rect width="34" height="54" fill="white"/>
</clipPath>
</defs>
</svg>
