<svg width="23" height="21" viewBox="0 0 23 21" fill="none" xmlns="http://www.w3.org/2000/svg">
<g clip-path="url(#clip0_134_3)">
<path d="M9.91279 11.9492L12.6922 14.4869C12.9411 14.7142 13.3237 14.7655 13.6337 14.6136L16.9646 12.981C17.2109 12.8601 17.5087 12.8659 17.7491 12.9964L22.609 15.6295C22.9558 15.8174 23.0954 16.2103 22.9331 16.5472C22.5178 17.4101 21.7619 18.9916 21.4616 19.6909C21.3985 19.8382 21.3044 19.973 21.1736 20.0764C17.9347 22.6398 11.4906 19.5164 6.55811 15.0128C1.62487 10.509 -1.796 4.62531 1.01153 1.66804C1.125 1.54858 1.27271 1.46271 1.43371 1.40508C2.19936 1.13091 3.93177 0.44071 4.87681 0.061543C5.24583 -0.0866236 5.67619 0.0407764 5.88191 0.35741L8.76586 4.79471C8.90846 5.01428 8.91485 5.28611 8.78272 5.51104L6.9946 8.55184C6.82823 8.83488 6.88446 9.18418 7.13337 9.41144L9.91279 11.9492Z" fill="white"/>
<path d="M23 11.55H20.7C20.7 6.3392 16.0571 2.1 10.35 2.1V0C17.3251 0 23 5.1814 23 11.55Z" fill="white"/>
<path d="M18.5278 11.5499H16.2278C16.2278 8.59079 13.5912 6.18325 10.35 6.18325V4.08325C14.8593 4.08325 18.5278 7.43275 18.5278 11.5499Z" fill="white"/>
</g>
<defs>
<clipPath id="clip0_134_3">
<rect width="23" height="21" fill="white"/>
</clipPath>
</defs>
</svg>
