<svg width="55" height="28" viewBox="0 0 55 28" fill="none" xmlns="http://www.w3.org/2000/svg">
<mask id="mask0_15_1632" style="mask-type:luminance" maskUnits="userSpaceOnUse" x="0" y="0" width="55" height="28">
<path d="M54.6369 0.707031H0.333649V27.2653H54.6369V0.707031Z" fill="white"/>
</mask>
<g mask="url(#mask0_15_1632)">
<path d="M27.1035 18.4676C27.0326 18.4504 25.9418 18.1895 24.7825 18.1895C22.5878 18.1895 21.2665 19.2874 21.2665 20.9227C21.2665 22.3702 22.3719 23.0926 23.6985 23.4808C23.8456 23.526 24.0623 23.5892 24.2066 23.6334C24.7972 23.805 25.2685 24.0614 25.2685 24.5039C25.2685 24.9996 24.7238 25.3202 23.5393 25.3202C22.4986 25.3202 21.5007 25.0448 21.2906 24.9951V27.0078C21.4077 27.0304 22.5936 27.2462 23.8604 27.2462C25.6826 27.2462 27.7669 26.5085 27.7669 24.3125C27.7669 23.247 27.0631 22.2663 25.5176 21.8103L24.8607 21.6171C24.4688 21.5024 23.7691 21.3164 23.7691 20.7846C23.7691 20.3638 24.2875 20.0676 25.2421 20.0676C26.0657 20.0676 27.068 20.3241 27.1035 20.3349V18.4676ZM47.2262 22.7178C47.2262 23.9901 46.1745 25.0195 44.7634 25.0195C43.3507 25.0195 42.3019 23.9901 42.3019 22.7178C42.3019 21.4483 43.3507 20.4189 44.7634 20.4189C46.1745 20.4189 47.2262 21.4483 47.2262 22.7178ZM44.7634 18.1922C41.8612 18.1922 39.7798 20.2202 39.7798 22.7178C39.7798 25.219 41.8612 27.2462 44.7634 27.2462C47.6654 27.2462 49.7497 25.219 49.7497 22.7178C49.7497 20.2202 47.6654 18.1922 44.7634 18.1922ZM18.0734 27.0909H15.6921V18.3466H18.0734" fill="#049FD9"/>
<path d="M12.4183 18.5055C12.1945 18.4441 11.3674 18.1921 10.2472 18.1921C7.34944 18.1921 5.22232 20.1073 5.22232 22.7178C5.22232 25.5351 7.57049 27.2462 10.2472 27.2462C11.3106 27.2462 12.1224 27.0133 12.4183 26.9356V24.5879C12.316 24.6411 11.5376 25.052 10.4179 25.052C8.83149 25.052 7.80834 24.0181 7.80834 22.7178C7.80834 21.3787 8.87573 20.3863 10.4179 20.3863C11.5567 20.3863 12.3225 20.8062 12.4183 20.8532" fill="#049FD9"/>
<path d="M37.3072 18.5055C37.0835 18.4441 36.2564 18.1921 35.1361 18.1921C32.2384 18.1921 30.1113 20.1073 30.1113 22.7178C30.1113 25.5351 32.4595 27.2462 35.1361 27.2462C36.1996 27.2462 37.0113 27.0133 37.3072 26.9356V24.5879C37.2049 24.6411 36.4266 25.052 35.3068 25.052C33.7205 25.052 32.6972 24.0181 32.6972 22.7178C32.6972 21.3787 33.7647 20.3863 35.3068 20.3863C36.4457 20.3863 37.2114 20.8062 37.3072 20.8532" fill="#049FD9"/>
<path d="M15.6846 1.81581C15.6846 1.21263 15.1533 0.724121 14.5022 0.724121C13.8514 0.724121 13.3201 1.21263 13.3201 1.81581V13.4271C13.3201 14.033 13.8514 14.5215 14.5022 14.5215C15.1533 14.5215 15.6846 14.033 15.6846 13.4271V1.81581ZM9.19105 5.93697C9.19105 5.33469 8.6601 4.84528 8.00897 4.84528C7.35784 4.84528 6.8269 5.33469 6.8269 5.93697V11.2455C6.8269 11.8514 7.35784 12.3399 8.00897 12.3399C8.6601 12.3399 9.19105 11.8514 9.19105 11.2455V5.93697ZM2.6978 8.95017C2.6978 8.34698 2.16685 7.85848 1.51572 7.85848C0.865314 7.85848 0.333649 8.34698 0.333649 8.95017V11.2455C0.333649 11.8514 0.865314 12.3399 1.51572 12.3399C2.16685 12.3399 2.6978 11.8514 2.6978 11.2455" fill="#049FD9"/>
<path d="M13.3283 1.79872C13.3283 1.19554 13.8595 0.707031 14.5106 0.707031C15.1616 0.707031 15.6928 1.19554 15.6928 1.79872V13.41C15.6928 14.0159 15.1616 14.5044 14.5106 14.5044C13.8595 14.5044 13.3283 14.0159 13.3283 13.41V1.79872ZM19.8218 5.91987C19.8218 5.31758 20.3527 4.82818 21.0039 4.82818C21.655 4.82818 22.186 5.31758 22.186 5.91987V11.2284C22.186 11.8343 21.655 12.3228 21.0039 12.3228C20.3527 12.3228 19.8218 11.8343 19.8218 11.2284V5.91987ZM26.315 8.93308C26.315 8.32989 26.846 7.84139 27.4972 7.84139C28.1475 7.84139 28.6793 8.32989 28.6793 8.93308V11.2284C28.6793 11.8343 28.1475 12.3228 27.4972 12.3228C26.846 12.3228 26.315 11.8343 26.315 11.2284" fill="#049FD9"/>
<path d="M41.6547 1.81581C41.6547 1.21263 41.1234 0.724121 40.4723 0.724121C39.8214 0.724121 39.2901 1.21263 39.2901 1.81581V13.4271C39.2901 14.033 39.8214 14.5215 40.4723 14.5215C41.1234 14.5215 41.6547 14.033 41.6547 13.4271V1.81581ZM35.1611 5.93697C35.1611 5.33469 34.6302 4.84528 33.9791 4.84528C33.3279 4.84528 32.7969 5.33469 32.7969 5.93697V11.2455C32.7969 11.8514 33.3279 12.3399 33.9791 12.3399C34.6302 12.3399 35.1611 11.8514 35.1611 11.2455V5.93697ZM28.6679 8.95017C28.6679 8.34698 28.1369 7.85848 27.4857 7.85848C26.8354 7.85848 26.3036 8.34698 26.3036 8.95017V11.2455C26.3036 11.8514 26.8354 12.3399 27.4857 12.3399C28.1369 12.3399 28.6679 11.8514 28.6679 11.2455" fill="#049FD9"/>
<path d="M39.2984 1.79872C39.2984 1.19554 39.8296 0.707031 40.4807 0.707031C41.1316 0.707031 41.6628 1.19554 41.6628 1.79872V13.41C41.6628 14.0159 41.1316 14.5044 40.4807 14.5044C39.8296 14.5044 39.2984 14.0159 39.2984 13.41V1.79872ZM45.7919 5.91987C45.7919 5.31758 46.3228 4.82818 46.974 4.82818C47.6251 4.82818 48.156 5.31758 48.156 5.91987V11.2284C48.156 11.8343 47.6251 12.3228 46.974 12.3228C46.3228 12.3228 45.7919 11.8343 45.7919 11.2284V5.91987ZM52.2851 8.93308C52.2851 8.32989 52.8161 7.84139 53.4672 7.84139C54.1176 7.84139 54.6493 8.32989 54.6493 8.93308V11.2284C54.6493 11.8343 54.1176 12.3228 53.4672 12.3228C52.8161 12.3228 52.2851 11.8343 52.2851 11.2284" fill="#049FD9"/>
</g>
</svg>
