<svg width="81" height="23" viewBox="0 0 81 23" fill="none" xmlns="http://www.w3.org/2000/svg">
<mask id="mask0_15_1606" style="mask-type:luminance" maskUnits="userSpaceOnUse" x="0" y="0" width="81" height="23">
<path d="M80.0139 0.375977H0.540894V22.1674H80.0139V0.375977Z" fill="white"/>
</mask>
<g mask="url(#mask0_15_1606)">
<path d="M9.06404 0.606689L0.819946 16.1235H3.40424L4.63318 13.7283H13.1256L12.1459 11.6681H5.62012L10.172 2.77147L16.947 16.1235H19.4112L11.2799 0.606689H9.06404ZM15.839 0.606689L24.0904 16.1235H26.3062L34.4302 0.606689H31.966L25.1983 13.7283L18.4233 0.606689H15.839ZM39.1094 0.606689L30.9782 16.1235H33.4424L34.6786 13.7283H43.1719L42.0639 11.6681H35.7865L40.2174 2.77147L46.9851 16.1235H49.5694L41.4454 0.606689H39.1094ZM46.1255 0.606689L54.2495 16.1235L51.0539 21.9406H53.3899L64.7167 0.606689H62.1315L55.3574 13.7283L48.5897 0.606689H46.1255ZM69.2758 0.606689L61.1446 16.1235H63.7298L64.965 13.7283H73.3374L72.3504 11.6681H65.9448L70.5039 2.77147L77.2788 16.1235H79.7358L71.6118 0.606689H69.2758Z" fill="#EE2722" stroke="#EE2722" stroke-width="0.605212" stroke-miterlimit="10" stroke-linecap="square"/>
</g>
</svg>
