<svg width="87" height="17" viewBox="0 0 87 17" fill="none" xmlns="http://www.w3.org/2000/svg">
<path d="M84.4587 11.9216C85.4258 11.9216 86.2095 12.7054 86.2095 13.6725C86.2095 14.6396 85.4258 15.4233 84.4587 15.4233C83.4916 15.4233 82.7078 14.6396 82.7078 13.6725C82.7078 12.7054 83.4916 11.9216 84.4587 11.9216Z" fill="#87D6F7"/>
<path d="M64.4769 3.21062C64.4769 0.00869137 60.3133 0.435789 58.6058 2.1433L59.6731 3.21062C61.8077 2.14331 61.7012 4.27883 61.274 6.41345C60.7404 8.54806 59.7796 13.2453 60.2067 14.9528C60.474 16.021 61.061 16.4481 62.3414 16.021C63.4096 14.9528 63.9432 14.9528 63.4096 12.2845C63.4096 11.0394 63.8358 7.90787 65.5442 5.34614C67.2517 2.78352 69.2807 2.67787 69.2807 4.81249C69.4586 5.34614 69.4938 7.1602 68.2125 10.1499C67.5009 11.7509 66.6115 15.6653 67.6788 16.021C68.2125 16.1989 69.4938 16.2341 70.348 14.9528C69.2807 13.3528 71.5381 7.30106 73.0163 6.41345C75.6854 4.81248 75.4714 6.09379 74.6181 9.08262C73.7278 11.2172 72.5892 15.5939 75.1518 16.021C78.3537 16.021 81.0229 12.8182 80.4892 11.2172C77.2864 13.8864 76.2191 14.0995 76.2191 12.8182C76.5749 12.1067 77.3758 10.1499 77.8201 7.48076C78.621 2.67787 74.0845 1.60966 71.9489 4.81249C71.9489 1.60966 68.747 -1.59227 64.4769 3.21062Z" fill="#87D6F7"/>
<path fill-rule="evenodd" clip-rule="evenodd" d="M22.7651 9.51614C22.7651 9.10168 22.4978 8.8949 21.9642 8.8949C21.5985 8.8949 21.1912 9.20552 20.7416 9.82767C20.2946 10.4498 19.9668 11.1334 19.7727 11.8503V11.8882C19.7763 12.3298 19.8503 12.7695 19.9939 13.193C20.1095 13.4955 20.1835 13.808 20.2151 14.1258C20.2151 14.5403 19.6183 14.9547 18.4236 15.3692C18.2701 15.4261 18.1058 15.4577 17.9397 15.4622C17.7744 15.4667 17.6119 15.4207 17.48 15.3322C17.3482 15.2446 17.2534 15.1191 17.2128 14.9773C17.062 14.552 16.9943 14.1077 17.0123 13.6626C17.0123 13.1091 17.0295 12.5917 17.0647 12.1086C17.0999 11.6255 17.1351 11.1722 17.1703 10.7469C17.2056 10.3333 17.2408 9.96581 17.276 9.64707C17.3103 9.32832 17.3283 9.07007 17.3283 8.87323C17.3283 8.45876 17.1107 8.25109 16.6746 8.25109C16.2394 8.25109 15.7337 8.70438 15.1576 9.61006C14.5815 10.5112 14.2935 11.2264 14.2935 11.7546C14.289 12.2494 14.363 12.7424 14.5147 13.2183C14.6303 13.5199 14.7043 13.8332 14.7368 14.1511C14.7368 14.5655 14.1391 14.9791 12.9453 15.3936C12.7918 15.4505 12.6275 15.4821 12.4604 15.4875C12.2952 15.4902 12.1336 15.4441 12.0017 15.3565C11.8699 15.269 11.7751 15.1434 11.7336 15.0026C11.674 14.8193 11.6279 14.6342 11.5936 14.4473C11.3074 14.6161 11.0058 14.766 10.6915 14.8933C10.166 15.1191 9.59081 15.2401 9.00569 15.2482C8.26164 15.2482 7.7632 14.6694 7.51037 13.5136C7.15098 14.0418 6.66158 14.4915 6.07736 14.8283C5.36041 15.1994 4.53599 15.3782 3.70616 15.3412C3.26551 15.3584 2.82487 15.2942 2.41312 15.1534C2.00136 15.0116 1.62753 14.7967 1.3151 14.5204C1.01893 14.2585 0.787772 13.9461 0.636073 13.6012C0.483471 13.2571 0.413043 12.8887 0.430199 12.5185C0.430199 10.4056 1.2239 8.73959 2.81132 7.52058C3.35671 7.07361 3.99782 6.72687 4.69672 6.50113C5.29358 6.33769 5.91573 6.25642 6.54059 6.25913C7.08869 6.24378 7.63228 6.35034 8.12078 6.56976C8.31763 6.20947 8.54246 6.02888 8.79529 6.02888C9.06077 6.03701 9.32082 6.09119 9.56191 6.18871C9.80301 6.28623 10.0206 6.42527 10.2003 6.59774C10.3854 6.72867 10.5389 6.89121 10.6518 7.07542C10.7656 7.25962 10.836 7.46189 10.8604 7.67047C10.6076 8.17704 10.3186 8.66915 9.99624 9.14321C9.86712 9.93963 9.81023 10.7442 9.82829 11.5487C9.82829 12.5853 9.97548 13.1036 10.2707 13.1036C10.4947 13.1036 10.9155 12.8589 11.5331 12.3704C11.5557 11.4738 11.6333 10.578 11.7652 9.68771C11.981 8.51656 12.4695 7.39778 13.1982 6.4018C13.2749 6.26094 13.3896 6.13904 13.5341 6.04784C13.6776 5.95664 13.8447 5.89885 14.0199 5.87988C14.4885 5.87988 14.9165 6.21579 15.3057 6.8867C15.4068 7.04111 15.4917 7.20364 15.5585 7.37159C15.8276 7.03298 16.1843 6.75486 16.5979 6.56072C17.0114 6.36658 17.471 6.26094 17.9397 6.25282C18.5347 6.25011 19.1117 6.43882 19.5623 6.78466C19.7862 6.94448 19.9659 7.14765 20.0878 7.37881C20.2097 7.60997 20.2702 7.86281 20.2639 8.11745V8.32332C20.626 7.88358 21.101 7.526 21.6491 7.27949C22.1972 7.03298 22.803 6.90475 23.418 6.90566C23.7313 6.88669 24.0455 6.92372 24.3426 7.01492C24.6397 7.10521 24.9124 7.24789 25.1463 7.4339C25.3386 7.60185 25.4903 7.80231 25.5914 8.02354C25.6925 8.24477 25.7422 8.48225 25.7359 8.72063C25.7404 9.18295 25.698 9.64527 25.6095 10.1004C25.5255 10.5148 25.4307 10.9004 25.325 11.2571C25.2194 11.6137 25.1246 11.9334 25.0406 12.2178C24.9684 12.43 24.9259 12.6485 24.9142 12.8698C24.9142 13.026 24.9702 13.1036 25.083 13.1036C25.3801 13.0666 25.6555 12.942 25.8623 12.7488C26.061 12.5971 26.2587 12.4372 26.4574 12.2675C26.4402 12.1122 26.4357 11.9551 26.4429 11.7979C26.3987 10.392 26.9639 9.02403 28.0231 7.97478C28.545 7.45105 29.1925 7.03569 29.9175 6.76028C30.6426 6.48488 31.4282 6.35485 32.2165 6.38104C32.8621 6.36208 33.5059 6.45236 34.1136 6.64831C34.9417 6.94629 35.3561 7.22621 35.3561 7.48717C35.3561 7.69395 34.7773 7.7978 33.6179 7.7978C33.077 7.78877 32.5398 7.87906 32.0395 8.06146C31.5393 8.24476 31.0869 8.51656 30.7103 8.86059C30.323 9.21094 30.0196 9.62721 29.8191 10.0841C29.6178 10.541 29.5229 11.0286 29.541 11.518C29.5229 12.0327 29.7216 12.5348 30.099 12.9267C30.3004 13.119 30.5478 13.2689 30.8223 13.3664C31.0977 13.463 31.3948 13.5037 31.6901 13.4856C32.2842 13.5046 32.8721 13.3754 33.3858 13.1127C32.9037 12.8337 32.5118 12.4472 32.249 11.9921C31.9871 11.5379 31.8634 11.0304 31.8905 10.5202C31.8806 9.91345 32.1416 9.32742 32.6174 8.88858C32.8567 8.64929 33.152 8.45786 33.4834 8.32874C33.8139 8.20052 34.1732 8.13641 34.5344 8.14273C35.3146 8.14273 35.8726 8.33235 36.2103 8.71159C36.5806 9.18023 36.7584 9.7473 36.716 10.3189C36.6167 11.5939 36.1715 12.8607 35.199 13.8061C33.9457 15.0486 32.603 15.4812 31.0688 15.4812C29.5338 15.4812 28.3536 15.1299 27.5807 14.4184C27.4055 14.2594 27.2484 14.087 27.1102 13.9028C27.0687 13.9389 27.0262 13.975 26.9829 14.0111C26.1531 14.7741 25.018 15.2202 23.8216 15.2545C22.8103 15.2545 22.3046 14.44 22.3046 12.8111C22.3254 12.2404 22.403 11.6724 22.5367 11.1144C22.6631 10.588 22.7398 10.0534 22.7651 9.51614ZM3.52737 11.9036C3.52737 12.8607 3.92739 13.3393 4.72833 13.3393C5.58524 13.3267 6.29497 12.923 6.85662 12.1275C7.07243 11.8142 7.23587 11.4747 7.34151 11.1198C7.31804 9.91616 7.4598 8.7134 7.7632 7.53954C6.62636 7.73638 5.58704 8.24295 4.79153 8.9879C4.37165 9.37437 4.04298 9.83218 3.82627 10.3324C3.60865 10.8336 3.50751 11.3672 3.52737 11.9036ZM35.2234 10.2656C35.2171 10.7189 35.097 11.1641 34.8721 11.5713V11.5839C34.6888 11.4232 34.5453 11.2309 34.4504 11.0187C34.3547 10.8074 34.3096 10.5807 34.3168 10.3532C34.3204 10.1907 34.3638 10.0317 34.4432 9.88637C34.5281 9.72473 34.6328 9.64437 34.7593 9.64437C35.069 9.64437 35.2234 9.85115 35.2234 10.2656Z" fill="#C7C8CA"/>
<path d="M36.9102 12.5094C36.633 12.5843 36.2934 12.5626 35.8898 12.3468C35.4365 12.1039 34.8442 12.1193 34.5345 12.5319C34.1164 13.09 34.5146 13.8855 35.2108 13.8476C36.0451 13.8024 37.0077 13.704 37.8484 13.4909C38.1129 13.4232 38.2529 13.1424 38.1662 12.8832C38.0272 12.4651 37.3346 12.3938 36.9102 12.5094Z" fill="#C7C8CA"/>
<path d="M45.6752 0.600017C46.552 0.824856 47.8324 1.72602 47.2789 3.74958C47.0839 4.46473 46.5132 5.12029 45.7764 5.03992C45.4107 5.00019 45.0955 4.72298 44.7488 4.59837C44.6973 4.57941 44.644 4.56134 44.5881 4.54329C43.6688 4.24079 42.6458 4.53878 42.0444 5.29727C41.4268 6.07744 40.7802 7.36054 40.4579 9.61616C40.289 10.7972 41.5261 17.0882 48.4645 9.0825C49.4668 8.0793 49.9986 4.24982 51.829 3.79021C52.0619 3.73152 52.285 3.85613 52.3238 4.0918C52.4385 4.77445 52.3689 6.56233 51.1328 10.6835V13.8854V13.8863C51.1328 14.42 51.1328 16.0209 48.9972 16.0209C48.6415 16.1988 47.3972 16.2539 47.3972 13.8854C46.8789 14.4028 42.3595 18.4228 38.195 14.7992C37.9169 14.5572 37.683 14.2656 37.5458 13.9215C36.2925 10.7801 37.1566 2.3563 44.8454 0.628014C45.1181 0.566612 45.4043 0.531391 45.6752 0.600017Z" fill="#87D6F7"/>
<path d="M57.5376 1.60978C53.802 -0.524838 48.6776 1.18357 47.3972 3.74529C47.3972 4.8126 50.6019 2.75383 51.6665 2.67708C59.1394 2.14343 55.9366 7.48088 55.4029 7.48088C50.5991 7.48088 53.2683 9.61639 53.802 9.61639C53.802 9.61639 54.3356 13.8856 54.8693 14.4193C55.4029 17.0885 59.8392 15.4938 60.2022 14.9602L60.2067 12.2847C59.2785 13.1596 58.0721 14.4193 57.5376 12.8183C57.4581 12.5781 56.0061 9.15949 56.4703 9.08274C59.6731 8.54818 61.3806 3.3182 57.5376 1.60978Z" fill="#87D6F7"/>
</svg>
