<svg width="94" height="19" viewBox="0 0 94 19" fill="none" xmlns="http://www.w3.org/2000/svg">
<path d="M91.4614 4.8641H91.0199V4.69434H92.1351V4.8641H91.6935V6.11379H91.4614V4.8641Z" fill="#4F5154"/>
<path d="M92.9351 6.11381L92.535 4.90655V6.11381H92.3039V4.67358H92.6615L93.019 5.83841L93.3766 4.67358H93.7351V6.11381H93.5662V4.90655L93.1662 6.11381H92.9351Z" fill="#4F5154"/>
<path d="M10.1066 1.11406C10.569 1.11406 10.9482 1.4951 10.9482 1.96104C10.9482 2.42697 10.569 2.80893 10.1066 2.80893H10.0642C9.62264 2.78726 9.26506 2.44865 9.26506 2.00349C9.26506 1.77052 9.34904 1.55831 9.49623 1.36779C9.64341 1.19893 9.87457 1.09239 10.1066 1.11406ZM10.1066 0.0332031C9.05467 0.0539714 8.2122 0.944305 8.23387 2.00349C8.25464 2.99946 9.03298 3.82568 10.0226 3.88888H10.1066C11.1586 3.88888 12.0218 3.04189 12.0218 1.98271V1.96104C12.0218 0.901854 11.1793 0.0332031 10.1274 0.0332031H10.1066Z" fill="#E9522B"/>
<path d="M8.80185 13.529C9.89625 13.5082 10.7802 14.3769 10.801 15.4785C10.8227 16.5801 9.95946 17.4704 8.86506 17.4912C8.84429 17.4912 8.82352 17.4912 8.80185 17.4912H6.69792C5.60352 17.5129 4.71952 16.6442 4.69875 15.5417C4.67798 14.4401 5.54033 13.5507 6.63473 13.529C6.6555 13.529 6.67715 13.529 6.69792 13.529H8.80185ZM8.80185 12.2161H6.69792C4.9299 12.2368 3.49871 13.6987 3.52038 15.5002C3.54115 17.2582 4.95157 18.6569 6.69792 18.6994H8.80185C10.5699 18.6777 12.0011 17.2158 11.9794 15.4153C11.9586 13.6563 10.5491 12.2585 8.80185 12.2161Z" fill="#E9522B"/>
<path d="M8.80186 5.9865C9.89626 5.96573 10.7803 6.83438 10.801 7.936C10.8218 9.03762 9.95947 9.92794 8.86507 9.94871C8.84431 9.94871 8.82263 9.94871 8.80186 9.94871H3.85631C2.76191 9.97038 1.87879 9.10174 1.85712 7.99922C1.83635 6.89759 2.6996 6.00817 3.79309 5.9865C3.81477 5.9865 3.83554 5.9865 3.85631 5.9865H8.80186ZM8.80186 4.67358H3.85631C2.0892 4.69435 0.657983 6.15625 0.678751 7.95768C0.700422 9.71576 2.10997 11.1145 3.85631 11.1569H8.80186C10.5699 11.1352 12.0002 9.67332 11.9794 7.8728C11.9586 6.11382 10.5482 4.69435 8.80186 4.67358Z" fill="#E9522B"/>
<path d="M28.8776 18.741V4.63037H36.7686V6.02907H30.2871V10.9232H36.095V12.2794H30.2871V17.364H36.7686V18.7627L28.8776 18.741Z" fill="#4F5154"/>
<path d="M52.0477 18.741V4.63037H59.9388V6.02907H53.4573V10.9232H59.2651V12.2794H53.4573V17.364H59.9388V18.7627L52.0477 18.741Z" fill="#4F5154"/>
<path d="M75.6161 18.741V12.8934L70.881 4.63037H72.4801L76.3105 11.4108L80.14 4.63037H81.6976L77.0049 12.8934V18.741H75.6161Z" fill="#4F5154"/>
<path d="M49.2061 18.741V4.63037H47.8173V16.1351L40.8942 4.63037H39.463V18.741H40.8942V7.23634L47.8173 18.741H49.2061Z" fill="#4F5154"/>
<path d="M21.512 12.6811H24.8575V13.8044C24.8575 16.5376 23.1112 17.5327 21.512 17.5327C19.9129 17.5327 18.1656 16.5376 18.1656 13.8044V9.5884C18.1656 6.85511 19.9129 5.85913 21.512 5.85913C23.1951 5.79592 24.6471 7.04564 24.816 8.74051H26.2048C26.0359 6.28263 23.9735 4.37646 21.512 4.46043C18.6496 4.46043 16.7769 6.53726 16.7769 9.5884V13.8044C16.7769 16.8555 18.692 18.9314 21.512 18.9314C24.3735 18.9314 26.2463 16.8555 26.2463 13.8044V11.2833H21.512V12.6811Z" fill="#4F5154"/>
<path d="M63.0739 14.4618C63.0739 16.135 64.4202 17.512 66.0835 17.512C66.125 17.512 66.1467 17.512 66.1882 17.512C67.977 17.512 68.9034 16.665 68.9034 15.0334C68.9242 13.8893 68.1034 12.8933 66.9882 12.7028L64.6315 12.0671C62.9267 11.6436 61.7691 10.0544 61.853 8.29632C61.853 6.00819 63.4522 4.48218 65.8731 4.48218C68.6506 4.48218 69.8497 6.41001 70.1233 8.33875H68.7346C68.4185 6.72786 67.3882 5.8592 65.9146 5.8592C64.3154 5.8592 63.2843 6.81274 63.2843 8.29632C63.2211 9.44038 63.9994 10.4571 65.1155 10.7325L67.577 11.4107C69.261 11.8342 70.4394 13.3809 70.3969 15.139C70.3969 17.512 68.7978 18.9956 66.2514 18.9956C63.0738 18.9956 61.7898 16.5594 61.7483 14.5458L63.0739 14.4618Z" fill="#4F5154"/>
<path d="M83.76 14.4618C83.76 16.135 85.1073 17.512 86.7696 17.512C86.8121 17.512 86.8328 17.512 86.8744 17.512C88.6631 17.512 89.5896 16.665 89.5896 15.0334C89.6104 13.8893 88.7896 12.8933 87.6744 12.7028L85.3176 12.0671C83.6128 11.6436 82.4552 10.0544 82.5401 8.29632C82.5401 6.00819 84.1393 4.48218 86.5592 4.48218C89.3368 4.48218 90.5359 6.41001 90.8095 8.33875H89.4207C89.1056 6.72786 88.0744 5.8592 86.6008 5.8592C85.0016 5.8592 83.9704 6.81274 83.9704 8.29632C83.9072 9.44038 84.6865 10.4571 85.8016 10.7325L88.264 11.4107C89.9472 11.8342 91.1255 13.3809 91.0831 15.139C91.0831 17.512 89.484 18.9956 86.9376 18.9956C83.76 18.9956 82.4769 16.5594 82.4344 14.5458L83.76 14.4618Z" fill="#4F5154"/>
</svg>
