<svg width="99" height="19" viewBox="0 0 99 19" fill="none" xmlns="http://www.w3.org/2000/svg">
<mask id="mask0_15_1679" style="mask-type:luminance" maskUnits="userSpaceOnUse" x="0" y="0" width="99" height="19">
<path d="M98.3934 0.445312H0.872803V18.5047H98.3934V0.445312Z" fill="white"/>
</mask>
<g mask="url(#mask0_15_1679)">
<path d="M67.1372 13.551H75.9384V11.5392H70.1378C70.9378 8.23703 75.8391 7.51465 75.8391 3.8504C75.8391 1.89006 74.5388 0.445312 71.7884 0.445312C70.0872 0.445312 68.5874 0.960912 67.5869 1.47741L68.1874 3.33481C69.0876 2.87068 70.1378 2.45803 71.438 2.45803C72.4385 2.45803 73.3885 2.92216 73.3885 4.10866C73.3885 6.79229 67.6375 6.99816 67.1372 13.551ZM76.1886 10.3518H81.8402V13.551H84.0904V10.3518H85.9912V8.39144H84.0904V0.445312H82.4398L76.1886 8.8041V10.3518ZM78.7395 8.49438L81.9405 4.05719C81.9405 4.41838 81.8402 5.55341 81.8402 6.5855V8.4429H80.3395C79.8898 8.4429 79.0392 8.49438 78.7395 8.49438Z" fill="#005893"/>
<path d="M3.22323 11.5907V7.51469H4.17315C5.02375 7.51469 5.72355 7.61763 6.22379 7.92735C6.72404 8.23706 7.02384 8.75266 7.02384 9.57798C7.02384 10.9713 6.22379 11.5907 4.32394 11.5907H3.22323ZM0.922459 13.551H4.27338C8.02431 13.551 9.37426 11.8489 9.37426 9.47504C9.37426 7.87588 8.72411 6.79232 7.57463 6.17288C6.67437 5.65639 5.524 5.50198 4.1235 5.50198H3.22323V2.4057H8.27443L8.87491 0.496826H0.872803V13.551H0.922459ZM10.9246 13.551H13.1252L15.9759 9.32063C16.5258 8.54588 16.9258 7.77204 17.1759 7.35938H17.2265C17.1759 7.92735 17.1262 8.64973 17.1262 9.3721V13.4996H19.3764V4.21164H17.1759L14.3252 8.44294C13.8259 9.21678 13.3753 9.99064 13.1252 10.4042H13.0755C13.1252 9.83623 13.1758 9.11385 13.1758 8.39148V4.26401H10.9246V13.551ZM23.2276 13.551H25.5284V6.17288H28.2283L28.8287 4.21164H20.4772V6.17288H23.2276V13.551ZM29.6288 18.2465H31.879V13.551C32.3295 13.7064 32.7792 13.7578 33.2795 13.7578C36.1301 13.7578 37.9803 11.7451 37.9803 8.8556C37.9803 5.86316 36.28 3.95429 33.0293 3.95429C31.7796 3.95429 30.5787 4.21164 29.5791 4.52136V18.2465H29.6288ZM31.879 11.5392V6.06995C32.2293 5.96611 32.5291 5.91464 32.93 5.91464C34.5797 5.91464 35.6299 6.84378 35.6299 8.8556C35.6299 10.6615 34.7802 11.7966 33.0799 11.7966C32.6293 11.7966 32.2799 11.6936 31.879 11.5392ZM39.3312 13.551H41.5317L44.3824 9.32063C44.9323 8.54588 45.3323 7.77204 45.5824 7.35938H45.6321C45.5824 7.92735 45.5318 8.64973 45.5318 9.3721V13.4996H47.7829V4.21164H45.5824L42.7317 8.44294C42.2315 9.21678 41.7818 9.99064 41.5317 10.4042H41.4811C41.5317 9.83623 41.5814 9.11385 41.5814 8.39148V4.26401H39.3312V13.551ZM49.5835 13.551H51.8833V9.68182H53.2342C53.4843 9.68182 53.7344 9.93916 54.0342 10.5586L55.1846 13.551H57.6352L55.9846 9.99063C55.6848 9.3721 55.3841 9.01091 54.9344 8.8556V8.80414C55.6848 8.34001 55.7841 6.9982 56.2347 6.3273C56.3846 6.12142 56.5842 6.01758 56.8849 6.01758C57.0348 6.01758 57.2343 6.01757 57.3851 6.12141V4.1087C57.135 4.00576 56.6844 3.95429 56.4343 3.95429C55.6343 3.95429 55.134 4.26401 54.7845 4.7796C54.0342 5.91464 54.0342 7.87588 52.9335 7.87588H51.8833V4.21164H49.5835V13.551ZM62.7361 13.7578C63.9858 13.7578 65.1362 13.3452 65.8369 12.8287L65.1868 11.2295C64.5366 11.5907 63.9361 11.8489 63.0856 11.8489C61.5361 11.8489 60.5356 10.8169 60.5356 8.90707C60.5356 7.20498 61.5361 5.86316 63.2363 5.86316C64.1366 5.86316 64.7868 6.12142 65.4369 6.58554V4.57282C64.9366 4.264 64.1366 3.95429 62.9862 3.95429C60.2854 3.95429 58.1851 6.01757 58.1851 8.95944C58.1851 11.6422 59.7852 13.7578 62.7361 13.7578Z" fill="#0BBBEF"/>
<path d="M93.4425 10.3518C95.8931 10.3518 97.8932 8.28853 97.8932 5.76022C97.8932 3.23191 95.8931 1.16772 93.4425 1.16772C90.9918 1.16772 88.9918 3.23191 88.9918 5.76022C89.0414 8.28853 90.9918 10.3518 93.4425 10.3518Z" stroke="#005893" stroke-width="1.59717"/>
<path d="M96.2426 5.76025H93.7928V3.23193H93.1427V6.43115H96.2426V5.76025Z" fill="#005893"/>
</g>
</svg>
