<svg width="83" height="20" viewBox="0 0 83 20" fill="none" xmlns="http://www.w3.org/2000/svg">
<mask id="mask0_15_1658" style="mask-type:luminance" maskUnits="userSpaceOnUse" x="0" y="0" width="83" height="20">
<path d="M82.5006 0.839111H0.330444V19.8141H82.5006V0.839111Z" fill="white"/>
</mask>
<g mask="url(#mask0_15_1658)">
<path d="M15.736 1.4748C16.4791 1.4757 17.1907 1.77278 17.7153 2.30192C18.2408 2.83106 18.5361 3.54802 18.537 4.29568V16.3584C18.5361 17.1061 18.2408 17.823 17.7153 18.3522C17.1907 18.8804 16.4791 19.1784 15.736 19.1793H3.76173C3.01949 19.1784 2.30795 18.8804 1.78242 18.3522C1.25779 17.823 0.962527 17.1061 0.961624 16.3584V4.29568C0.962527 3.54802 1.25779 2.83106 1.78242 2.30192C2.30795 1.77278 3.01949 1.4757 3.76173 1.4748H15.736ZM15.736 0.839111H3.76173C2.85154 0.839111 1.97927 1.20301 1.33545 1.85134C0.691638 2.49967 0.330444 3.37917 0.330444 4.29568V16.3584C0.330444 17.275 0.691638 18.1535 1.33545 18.8019C1.97927 19.4502 2.85154 19.8141 3.76173 19.8141H15.736C16.6462 19.8141 17.5194 19.4502 18.1623 18.8019C18.8061 18.1535 19.1673 17.275 19.1673 16.3584V4.29568C19.1673 3.37917 18.8061 2.49967 18.1623 1.85134C17.5194 1.20301 16.6462 0.839111 15.736 0.839111Z" fill="#020202"/>
<path d="M15.5175 6.05095C15.6114 5.90467 15.5463 5.78638 15.373 5.78638H11.325C11.2293 5.79179 11.1362 5.81798 11.0523 5.86403C10.9683 5.91008 10.8952 5.97329 10.8383 6.05095L6.30988 13.1094C6.26383 13.1907 6.23945 13.2828 6.23855 13.3767C6.23765 13.4706 6.26113 13.5627 6.30718 13.6449L8.2901 16.8089C8.3831 16.9561 8.5357 16.957 8.62961 16.8089L15.5175 6.05095Z" fill="black"/>
<path d="M9.231 5.78467C9.40437 5.78467 9.46938 5.90476 9.37548 6.04924L6.93746 9.85796C6.84446 10.0042 6.69095 10.0042 6.59885 9.85796L4.21501 6.05285C4.12291 5.90476 4.18882 5.78467 4.36219 5.78467H9.231Z" fill="black"/>
<path d="M47.5955 5.76831H45.701V14.4431H47.5955V5.76831Z" fill="black"/>
<path d="M29.9586 5.76831L27.5188 10.713L25.2226 5.76831H23.0356L26.4136 13.0291L23.9476 17.9132H26.1526L32.1799 5.76831H29.9586Z" fill="black"/>
<path d="M43.859 1.08472H41.9817V14.4432H43.859V1.08472Z" fill="black"/>
<path d="M36.4194 7.40004C36.926 7.40365 37.4226 7.54994 37.8515 7.82264C38.2804 8.09534 38.6254 8.48361 38.8475 8.94322H40.7925C40.5334 7.97614 39.9636 7.12283 39.1726 6.51694C38.3807 5.91104 37.4118 5.58689 36.4185 5.59411C33.9381 5.59411 31.9741 7.62488 31.9741 10.1053C31.9741 12.6038 33.9381 14.6166 36.4185 14.6166C38.5369 14.6166 40.276 13.1592 40.7925 11.1636H38.8475C38.6371 11.6359 38.2967 12.0377 37.866 12.3212C37.4353 12.6039 36.9332 12.7565 36.4194 12.7601C34.9891 12.7601 33.7665 11.5456 33.7665 10.1053C33.7665 8.59737 34.9891 7.40004 36.4194 7.40004Z" fill="black"/>
<path d="M46.6483 2.31634C45.9602 2.31634 45.46 2.83735 45.46 3.49651C45.46 4.17284 45.9602 4.74533 46.6483 4.74533C47.3201 4.74533 47.8366 4.17284 47.8366 3.49651C47.8375 3.3394 47.8077 3.18499 47.7481 3.03961C47.6885 2.89514 47.6 2.76421 47.4898 2.65405C47.3788 2.54388 47.2478 2.4572 47.1034 2.39941C46.9589 2.34162 46.8045 2.31363 46.6483 2.31634Z" fill="black"/>
<path d="M70.399 2.99365H68.5389V12.5534C68.5389 13.6983 69.4175 14.4442 70.4685 14.4442H73.172V12.5705H70.911C70.7755 12.5705 70.6464 12.5164 70.5498 12.4198C70.4541 12.3231 70.4008 12.1922 70.4008 12.0558V7.64304H73.1738V5.76938H70.4008L70.399 2.99365Z" fill="black"/>
<path d="M53.4891 5.59497C52.2141 5.59497 51.1125 6.01123 50.2339 6.89614C49.4619 7.7639 49.0375 8.8899 49.0429 10.0547C49.0429 11.3035 49.4908 12.4837 50.2827 13.2991C51.127 14.0973 52.2466 14.6174 53.4864 14.6174C54.7262 14.6174 55.863 14.0973 56.7244 13.2467C57.1037 12.8828 57.3448 12.4666 57.5859 11.9627L55.3817 12.0142C54.8995 12.518 54.2621 12.7781 53.4891 12.7781C52.7315 12.7781 52.0769 12.5352 51.6118 12.0322C51.285 11.7099 51.0466 11.309 50.9193 10.8665H57.8983L57.9037 10.7166C57.9227 10.5279 57.9498 10.2687 57.9498 10.0511C57.9471 7.48669 56.0183 5.59497 53.4891 5.59497ZM50.9626 9.11745C51.3301 8.09529 52.2945 7.4 53.4891 7.4C54.6684 7.4 55.6147 8.09439 55.993 9.11745H50.9626Z" fill="black"/>
<path d="M63.3893 5.59497C62.5937 5.59497 61.8407 5.82252 61.2709 6.36791V5.76834H59.4108V14.4432H61.27V9.44703C61.27 8.33457 62.0962 7.36478 63.1816 7.36478C64.3184 7.36478 65.1446 8.31832 65.1446 9.44703V14.4432H67.0047V9.30619C67.0065 7.15622 65.5248 5.59497 63.3893 5.59497Z" fill="black"/>
<path d="M79.8721 9.15465H77.183C76.9889 9.14923 76.8038 9.06796 76.6683 8.928C76.5329 8.78804 76.457 8.5993 76.457 8.40426C76.457 8.20832 76.5329 8.0205 76.6683 7.87964C76.8038 7.73968 76.9889 7.65841 77.183 7.65299H82.0031V5.76489H77.183C76.4859 5.76489 75.8168 6.0439 75.3238 6.54054C74.8308 7.03717 74.5536 7.71079 74.5536 8.4133C74.5536 9.11581 74.8308 9.78943 75.3238 10.2861C75.8168 10.7827 76.4859 11.0617 77.183 11.0617H79.8721C79.9696 11.0599 80.0662 11.0771 80.1565 11.1141C80.2468 11.1502 80.329 11.2053 80.3976 11.2739C80.4662 11.3434 80.5204 11.4256 80.5565 11.5168C80.5926 11.608 80.6107 11.7055 80.608 11.803C80.608 12.0017 80.5312 12.1913 80.3931 12.3331C80.2558 12.4749 80.0689 12.557 79.8721 12.5624H74.8958V14.4515H79.8721C80.5692 14.4515 81.2383 14.1724 81.7313 13.6758C82.2243 13.1792 82.5015 12.5056 82.5015 11.803C82.5015 11.1005 82.2243 10.4269 81.7313 9.93028C81.2383 9.43365 80.5692 9.15465 79.8721 9.15465Z" fill="black"/>
</g>
</svg>
