<svg width="59" height="29" viewBox="0 0 59 29" fill="none" xmlns="http://www.w3.org/2000/svg">
<mask id="mask0_15_1619" style="mask-type:luminance" maskUnits="userSpaceOnUse" x="0" y="0" width="59" height="29">
<path d="M58.6969 0.124512H0.90686V28.1165H58.6969V0.124512Z" fill="white"/>
</mask>
<g mask="url(#mask0_15_1619)">
<mask id="mask1_15_1619" style="mask-type:luminance" maskUnits="userSpaceOnUse" x="-242" y="-65" width="548" height="544">
<path d="M-241.941 478.886H305.252V-64.5732H-241.941V478.886Z" fill="white"/>
</mask>
<g mask="url(#mask1_15_1619)">
<path d="M30.8939 24.3927C29.777 24.3187 28.4892 24.1245 27.4735 23.832C27.2832 23.7769 26.4954 23.4897 26.295 23.3985C22.7587 21.7714 20.2952 18.22 20.2952 14.0998C20.2952 8.44899 24.9245 3.84565 30.6181 3.84565C36.2612 3.84565 40.8593 8.37043 40.9383 13.958H44.6676C44.5886 6.32882 38.3185 0.146185 30.6181 0.146185C22.8718 0.146185 16.5669 6.40466 16.5669 14.0998C16.5669 19.4047 19.5709 24.0189 23.9694 26.3765C24.7636 26.7937 25.9034 27.2235 26.2904 27.3418C27.5443 27.712 29.083 27.9585 30.4527 28.0615C30.9178 28.0967 32.5421 28.1147 33.0155 28.1165H58.6969V24.427H33.0587C32.7176 24.427 31.2276 24.4144 30.8939 24.3927ZM33.0587 18.6002C32.7875 18.6002 31.3691 18.5911 31.1072 18.5685C30.6632 18.5315 30.0197 18.4656 29.6061 18.3717C29.1391 18.2471 28.7006 18.0828 28.503 17.9753C27.1177 17.2313 26.1736 15.7766 26.1736 14.0998C26.1736 11.6617 28.162 9.68425 30.6181 9.68425C33.0228 9.68425 34.978 11.5841 35.0561 13.958H38.6393C38.5639 9.62104 35.0047 6.12655 30.6181 6.12655C26.1829 6.12655 22.5878 9.69598 22.5878 14.0998C22.5878 17.206 24.3803 19.8878 26.9908 21.2016C27.3926 21.4355 28.1482 21.6802 28.3633 21.7362C29.1005 21.9285 30.0905 22.0603 30.8939 22.1181C31.1908 22.1434 32.645 22.1542 32.952 22.156V22.1615H58.696V18.6002H33.0587ZM14.2687 28.103H10.5146V3.85378H5.02864V0.124512H14.2687V28.103ZM0.90686 5.7175V9.30318H5.02864V28.103H8.63573V5.7175H0.90686Z" fill="#D91920"/>
<path d="M52.0632 0.385498C50.711 0.385498 49.5896 1.45642 49.5896 2.80003C49.5896 4.14365 50.711 5.25791 52.0632 5.25791C53.4567 5.25791 54.535 4.14365 54.535 2.80003C54.535 1.45642 53.4567 0.385498 52.0632 0.385498ZM52.0632 4.86152C50.9463 4.86152 49.9839 3.98924 49.9839 2.80003C49.9839 1.67042 50.9463 0.776482 52.0632 0.776482C53.1792 0.776482 54.137 1.67042 54.137 2.80003C54.137 3.98924 53.1792 4.86152 52.0632 4.86152Z" fill="#D91920"/>
<path d="M53.0051 3.46184C53.0051 3.19005 52.9646 2.93812 52.6521 2.83879C53.0437 2.70425 53.0823 2.44872 53.0823 2.29522C53.0823 1.67126 52.5124 1.5918 52.278 1.5918H51.1998V4.00633H51.6493V3.01577H52.0031C52.5124 3.01577 52.5547 3.24874 52.5547 3.46184C52.5547 3.8736 52.5547 3.95125 52.6521 4.00633H53.1025C53.0051 3.90881 53.0437 3.83296 53.0051 3.46184ZM52.1797 2.66362H51.6493V1.90332H52.1034C52.4177 1.90332 52.631 2.00175 52.631 2.29522C52.631 2.44872 52.5547 2.66362 52.1797 2.66362Z" fill="#D91920"/>
</g>
</g>
</svg>
