<svg width="98" height="21" viewBox="0 0 98 21" fill="none" xmlns="http://www.w3.org/2000/svg">
<mask id="mask0_15_1669" style="mask-type:luminance" maskUnits="userSpaceOnUse" x="0" y="0" width="98" height="21">
<path d="M97.4905 0.439453H0.872803V20.3048H97.4905V0.439453Z" fill="white"/>
</mask>
<g mask="url(#mask0_15_1669)">
<path fill-rule="evenodd" clip-rule="evenodd" d="M5.20072 17.8855C5.15467 17.8853 5.10952 17.8745 5.06798 17.8539C4.90635 17.7751 4.80521 17.7402 4.88016 17.569L6.96692 12.654C7.00033 12.5749 7.06173 12.5128 7.13758 12.4806L8.0848 12.0731C8.19135 12.0273 8.31325 12.0452 8.40355 12.1204C8.49384 12.1957 8.5399 12.3166 8.52455 12.4376C8.50829 12.5587 8.43335 12.6615 8.3268 12.7075L7.49788 13.0636L5.4662 17.8566C5.41021 17.9813 5.32443 17.8861 5.20163 17.8861L5.20072 17.8855Z" fill="#2A2A2A"/>
<path fill-rule="evenodd" clip-rule="evenodd" d="M8.26986 12.7272L8.08929 12.2497L29.8544 2.90212L6.25717 10.2639L6.1217 9.77074L31.4978 2.30273L8.26986 12.7272Z" fill="#2A2A2A"/>
<path fill-rule="evenodd" clip-rule="evenodd" d="M21.9354 13.5916C21.8009 13.5916 21.6799 13.5023 21.6329 13.3678C21.5869 13.2333 21.6239 13.0821 21.7259 12.9888L34.7152 1.12445H7.67124L2.26425 6.29765L6.61205 9.66789C6.63643 9.68694 6.65812 9.70924 6.67617 9.73434L8.45954 12.1799C8.5688 12.3292 8.5426 12.5443 8.40264 12.6593C8.26178 12.775 8.06044 12.7484 7.95027 12.5997L6.1949 10.194L1.56358 6.60456C1.48592 6.54343 1.43714 6.44808 1.43263 6.34496C1.42721 6.24175 1.46604 6.14161 1.53828 6.07226L7.33353 0.526409C7.39223 0.470154 7.46807 0.439184 7.54754 0.439455H35.591C35.7265 0.439455 35.8384 0.528489 35.8854 0.662128C35.9324 0.796399 35.8962 0.947555 35.7933 1.04092L22.1449 13.5081C22.0863 13.5614 22.0122 13.5906 21.9354 13.5903V13.5916Z" fill="#2A2A2A"/>
<path fill-rule="evenodd" clip-rule="evenodd" d="M4.87928 17.5686L3.63318 20.3045H14.6792L17.6202 17.5645" fill="#44AC5A"/>
<path fill-rule="evenodd" clip-rule="evenodd" d="M27.2042 17.5647V8.65746L22.3905 13.158L19.8703 8.52048H17.6201V17.5647H19.4929V11.7558L21.5372 15.748H23.3404L25.3333 11.7935V17.5647H27.206H27.2042ZM96.9288 17.5475V8.52255H95.0046V12.0113H90.8319V8.52255H88.8914V17.5462H90.8319V13.8745H95.0063V17.5462H96.9297L96.9288 17.5475ZM68.1728 13.5094C68.1051 14.8795 68.0356 15.263 67.8468 15.537C67.641 15.7747 67.4017 15.9207 67.0405 15.9207C66.9033 15.9207 66.6269 15.9035 66.6269 15.9035V17.6387C66.8328 17.6564 67.2103 17.6935 67.4514 17.6935C68.1566 17.6935 68.7742 17.5838 69.1697 17.2003C69.5643 16.8166 69.977 16.3234 70.079 14.478C70.1151 13.8019 70.2334 10.3857 70.2334 10.3857H73.5825V17.5647H75.5248V8.52255H68.2929C68.2776 9.16095 68.2433 12.1942 68.1728 13.5094ZM53.9339 15.1349V8.57736C53.6251 8.52255 52.4052 8.33898 50.601 8.33898C47.2005 8.33898 45.4135 10.3666 45.4135 13.3991C45.4135 14.8787 45.7747 15.9377 46.3923 16.6666C47.0966 17.49 48.1793 17.8188 49.0209 17.8188C51.2367 17.8188 52.0268 16.3762 52.0268 16.3762L52.0955 16.4125C52.0955 16.4125 52.0774 16.505 52.0774 16.6502C52.0774 17.5818 52.9714 17.801 53.7443 17.801C54.5868 17.801 55.0491 17.729 55.0491 17.729V15.9755C54.9461 15.9933 54.8595 15.9933 54.6707 15.9933C54.2771 15.9933 53.9339 15.9207 53.9339 15.1349ZM51.9916 13.4717C51.9916 14.6774 50.9099 15.9925 49.5184 15.9925C48.7274 15.9925 48.2308 15.6281 47.8696 15.1521C47.6122 14.7506 47.4217 14.0752 47.4217 13.3258C47.4217 12.3751 47.68 11.4626 48.229 10.8961C48.6597 10.4392 49.4841 10.1111 50.5333 10.1111C51.2187 10.1111 51.9925 10.2563 51.9925 10.2563V13.471L51.9916 13.4717ZM39.0069 8.52255V17.5647H40.9646V10.3857H44.7092V8.52255H39.0069ZM57.0076 8.52255V17.5647H58.949V10.3857H63.1749V17.5647H65.1343V8.52255H57.0076ZM33.2866 8.28417C32.0667 8.28417 31.1737 8.59443 30.3321 9.435C29.4553 10.294 28.975 11.5174 28.975 13.071C28.975 14.4595 29.421 15.7398 30.1939 16.5235C31.0364 17.4003 32.3421 17.8387 34.0767 17.8387C34.9869 17.8387 35.8799 17.6757 36.5852 17.4379V15.811C36.1897 15.8836 35.1756 16.0666 34.0939 16.0666C33.0798 16.0666 32.3421 15.9035 31.8608 15.5007C31.4996 15.2075 31.0879 14.7513 30.9506 13.8923H37.0484C37.117 13.4895 37.1513 12.8867 37.1513 12.2292C37.1513 9.96451 35.6912 8.28417 33.2866 8.28417ZM30.984 12.1566C31.087 11.4989 31.3272 10.9509 31.6884 10.5673C32.0324 10.2022 32.5995 9.98292 33.2695 9.98292C33.9223 9.98292 34.3512 10.2022 34.7124 10.568C35.0393 10.9515 35.1937 11.5907 35.1937 12.1572H30.985L30.984 12.1566ZM85.7988 15.1349V8.57736C85.4891 8.52255 84.27 8.33898 82.4659 8.33898C79.0653 8.33898 77.2793 10.3666 77.2793 13.3991C77.2793 14.8787 77.6404 15.9377 78.259 16.6666C78.9624 17.49 80.0433 17.8188 80.8875 17.8188C83.1016 17.8188 83.8926 16.3762 83.8926 16.3762L83.9612 16.4125C83.9612 16.4125 83.9441 16.505 83.9441 16.6502C83.9441 17.5818 84.8398 17.801 85.611 17.801C86.4534 17.801 86.9157 17.729 86.9157 17.729V15.9755C86.8128 15.9933 86.727 15.9933 86.5374 15.9933C86.1419 15.9933 85.7988 15.9207 85.7988 15.1349ZM83.8574 13.4717C83.8574 14.6774 82.7738 15.9925 81.3842 15.9925C80.5932 15.9925 80.0956 15.6281 79.7344 15.1521C79.4771 14.7506 79.2884 14.0752 79.2884 13.3258C79.2884 12.3751 79.5638 11.4811 80.0965 10.8961C80.5426 10.4577 81.3489 10.1111 82.3973 10.1111C83.0835 10.1111 83.8583 10.2563 83.8583 10.2563V13.471L83.8574 13.4717Z" fill="#2A2A2A"/>
</g>
</svg>
