<svg width="63" height="51" viewBox="0 0 63 51" fill="none" xmlns="http://www.w3.org/2000/svg">
<path d="M60.5747 21.9717C59.2399 21.9717 58.1495 22.8733 58.1495 23.996V27.0119C58.1495 28.1265 59.2293 29.0362 60.5747 29.0362C61.9095 29.0362 62.9999 28.1347 62.9999 27.0119V23.996C62.9893 22.8733 61.9095 21.9717 60.5747 21.9717Z" fill="url(#paint0_linear_163_17)"/>
<path d="M2.42521 21.9717C1.07978 21.9717 0 22.8733 0 23.996V27.0119C0 28.1265 1.07978 29.0362 2.42521 29.0362C3.77064 29.0362 4.85046 28.1347 4.85046 27.0119V23.996C4.85046 22.8733 3.76001 21.9717 2.42521 21.9717Z" fill="url(#paint1_linear_163_17)"/>
<path d="M50.8752 15.0959C49.5404 15.0959 48.45 15.9975 48.45 17.1201V18.0791C48.45 19.1936 47.3702 20.1033 46.0248 20.1033C44.69 20.1033 43.6009 19.2018 43.6009 18.0791V10.818C43.6009 9.7033 42.5211 8.79362 41.1757 8.79362C39.8409 8.79362 38.7504 9.69521 38.7504 10.818V29.7739H38.7411C38.7411 29.8067 38.7504 29.8394 38.7504 29.864C38.7504 30.9786 37.6706 31.8883 36.3252 31.8883C34.9904 31.8883 33.9 30.9868 33.9 29.864C33.9 29.8312 33.9106 29.7985 33.9106 29.7739H33.9V2.02426C33.9 0.909685 32.8202 0 31.4761 0C30.14 0 29.0509 0.90148 29.0509 2.02426V20.2181H29.0602C28.9818 21.2834 27.9419 22.1276 26.6549 22.1276C25.3692 22.1276 24.3186 21.2834 24.2496 20.2181H24.2403V10.818C24.2403 9.7033 23.1605 8.79362 21.815 8.79362C20.4696 8.79362 19.3898 9.69521 19.3898 10.818V24.5043C19.3898 25.6188 18.31 26.5285 16.9646 26.5285C15.6205 26.5285 14.5407 25.6271 14.5407 24.5043V17.1201C14.5407 16.0056 13.4596 15.0959 12.1155 15.0959C10.7701 15.0959 9.69025 15.9975 9.69025 17.1201V33.8962C9.69025 35.0107 10.7701 35.9204 12.1155 35.9204C13.4596 35.9204 14.5407 35.0189 14.5407 33.8962V31.8965C14.5407 30.7819 15.6205 29.8723 16.9646 29.8723C18.31 29.8723 19.3898 30.7737 19.3898 31.8965V40.1984C19.3898 41.313 20.4696 42.2227 21.815 42.2227C23.1605 42.2227 24.2403 41.3212 24.2403 40.1984V27.5939C24.2403 26.4793 25.3201 25.5696 26.6655 25.5696C28.0003 25.5696 29.0894 26.4711 29.0894 27.5939V48.9757C29.0894 50.0903 30.1692 51 31.5146 51C32.8494 51 33.9398 50.0985 33.9398 48.9757V36.8301C33.9398 35.7155 35.0196 34.8058 36.3651 34.8058C37.6999 34.8058 38.7903 35.7074 38.7903 36.8301V40.1902C38.7903 41.3048 39.8701 42.2145 41.2142 42.2145C42.5503 42.2145 43.6394 41.313 43.6394 40.1902V25.1353C43.6394 24.0208 44.7192 23.1111 46.0646 23.1111C47.3994 23.1111 48.4898 24.0126 48.4898 25.1353V33.8879C48.4898 35.0025 49.5696 35.9123 50.9151 35.9123C52.2499 35.9123 53.339 35.0107 53.339 33.8879V17.1121C53.3004 15.9975 52.2206 15.0959 50.8752 15.0959Z" fill="url(#paint2_linear_163_17)"/>
<defs>
<linearGradient id="paint0_linear_163_17" x1="60.5707" y1="51.1666" x2="60.5707" y2="8.6599" gradientUnits="userSpaceOnUse">
<stop stop-color="#786AF9"/>
<stop offset="1" stop-color="#786AF9"/>
</linearGradient>
<linearGradient id="paint1_linear_163_17" x1="2.42257" y1="51.1666" x2="2.42257" y2="8.6599" gradientUnits="userSpaceOnUse">
<stop stop-color="#786AF9"/>
<stop offset="1" stop-color="#786AF9"/>
</linearGradient>
<linearGradient id="paint2_linear_163_17" x1="31.4973" y1="51.1667" x2="31.4973" y2="8.66013" gradientUnits="userSpaceOnUse">
<stop stop-color="#786AF9"/>
<stop offset="1" stop-color="#786AF9"/>
</linearGradient>
</defs>
</svg>
